<svg width="14" height="15" viewBox="0 0 14 15" fill="currentColor" xmlns="http://www.w3.org/2000/svg">
<path d="M9.14286 7.28571C9.14286 6.02679 8.11607 5 6.85714 5C5.59821 5 4.57143 6.02679 4.57143 7.28571C4.57143 8.54464 5.59821 9.57143 6.85714 9.57143C8.11607 9.57143 9.14286 8.54464 9.14286 7.28571ZM6.85714 2.42857C9.53572 2.42857 11.7143 4.60714 11.7143 7.28571C11.7143 9.96429 9.53572 12.1429 6.85714 12.1429C4.17857 12.1429 2 9.96429 2 7.28571C2 4.60714 4.17857 2.42857 6.85714 2.42857ZM13.7143 7.28571C13.7143 3.5 10.6429 0.428571 6.85714 0.428571C3.07143 0.428571 0 3.5 0 7.28571C0 11.0714 3.07143 14.1429 6.85714 14.1429C10.6429 14.1429 13.7143 11.0714 13.7143 7.28571Z"/>
</svg>
