<svg width="198" height="146" viewBox="0 0 198 146" fill="none" xmlns="http://www.w3.org/2000/svg">
<path fill-rule="evenodd" clip-rule="evenodd" d="M58.1901 68.451C58.7627 68.2646 59.3779 68.578 59.5637 69.151C59.7501 69.7237 59.4366 70.339 58.8638 70.5248C58.2914 70.711 57.6764 70.3976 57.4902 69.8251C57.3036 69.2525 57.6172 68.6372 58.1901 68.451" fill="white"/>
<path fill-rule="evenodd" clip-rule="evenodd" d="M4.32538 88.6054C9.22968 95.7998 15.1205 93.1399 21.2607 93.9041L26.1233 108.355C28.022 115.982 24.6263 125.344 26.8738 126.74C29.3693 125.903 27.6499 119.88 29.7375 116.008C34.815 121.567 33.0017 126.399 42.2129 129.482C43.8104 133.462 44.5738 148.739 50.7755 144.149C50.9154 141.66 48.2271 140.965 47.1768 138.434C46.442 136.665 45.9466 132.241 45.5694 130.115C57.0725 129.468 53.5695 127.936 58.7611 126.351C59.6015 128.174 61.5922 131.576 62.0229 133.26C62.7245 136.003 60.7323 138.258 62.5711 140.164C70.8869 139.848 60.484 126.843 61.2572 123.344C61.8807 120.523 63.194 120.103 63.4964 115.516C63.7033 112.383 59.9546 105.207 60.1355 103.549C64.7117 106.164 66.4415 111.123 68.2318 109.95C61.6425 100.728 57.3117 95.0563 52.9962 84.8261C63.3075 84.6474 83.5205 71.3107 64.5473 61.0913C52.913 55.4914 40.5613 64.2458 44.4842 78.9357C38.3817 79.6844 35.9594 79.0856 28.9583 80.7328C15.161 51.566 -7.55205 74.2649 4.32472 88.6046" fill="#9C9C9C"/>
<path d="M4.32538 88.6054C9.22968 95.7998 15.1205 93.1399 21.2607 93.9041L26.1233 108.355C28.022 115.982 24.6263 125.344 26.8738 126.74C29.3693 125.903 27.6499 119.88 29.7375 116.008C34.815 121.567 33.0017 126.399 42.2129 129.482C43.8104 133.462 44.5738 148.739 50.7755 144.149C50.9154 141.66 48.2271 140.965 47.1768 138.434C46.442 136.665 45.9466 132.241 45.5694 130.115C57.0725 129.468 53.5695 127.936 58.7611 126.351C59.6015 128.174 61.5922 131.576 62.0229 133.26C62.7245 136.003 60.7323 138.258 62.5711 140.164C70.8869 139.848 60.484 126.843 61.2572 123.344C61.8807 120.523 63.194 120.103 63.4964 115.516C63.7033 112.383 59.9546 105.207 60.1355 103.549C64.7117 106.164 66.4415 111.123 68.2318 109.95C61.6425 100.728 57.3117 95.0563 52.9962 84.8261C63.3075 84.6474 83.5205 71.3107 64.5473 61.0913C52.913 55.4914 40.5613 64.2458 44.4842 78.9357C38.3817 79.6844 35.9594 79.0856 28.9583 80.7328C15.161 51.566 -7.55205 74.2649 4.32472 88.6046" stroke="black" stroke-width="1.75748"/>
<path fill-rule="evenodd" clip-rule="evenodd" d="M9.41468 72.6855C0.622723 78.8771 12.8156 95.1812 21.8953 87.8403C30.3846 80.977 18.3866 66.3679 9.41468 72.6855Z" fill="#E2006C" stroke="black" stroke-width="1.75748"/>
<path fill-rule="evenodd" clip-rule="evenodd" d="M52.4882 67.8905C47.0671 71.8521 48.6404 87.0463 61.0965 77.9129C70.9906 70.6582 60.2374 62.2276 52.4882 67.8905Z" fill="#E2006C" stroke="black" stroke-width="1.75748"/>
<path fill-rule="evenodd" clip-rule="evenodd" d="M34.6192 92.2795C28.8311 95.8429 32.8229 103.808 39.6324 99.714C45.5463 96.1588 39.5323 89.2544 34.6192 92.2795Z" fill="#FCFCFC"/>
<path fill-rule="evenodd" clip-rule="evenodd" d="M35.7319 95.7247L37.746 98.196C37.8408 97.0951 38.2049 95.512 38.1889 94.8424C37.3364 94.4692 36.4072 94.2122 35.732 95.7247" fill="#1A1A18"/>
<path fill-rule="evenodd" clip-rule="evenodd" d="M46.9132 88.1696C47.9708 87.8261 49.1067 88.4044 49.4502 89.4615C49.7939 90.519 49.2157 91.6544 48.1584 91.9986C47.1011 92.3423 45.965 91.7636 45.6213 90.7065C45.2778 89.649 45.8561 88.5133 46.9132 88.1696" fill="white"/>
<path fill-rule="evenodd" clip-rule="evenodd" d="M27.3171 93.0056C28.3744 92.6619 29.5104 93.2406 29.8537 94.2977C30.1979 95.3549 29.6192 96.4909 28.5618 96.8344C27.5043 97.1783 26.3687 96.5998 26.0248 95.5423C25.6815 94.4848 26.2595 93.3494 27.3171 93.0057" fill="white"/>
<path fill-rule="evenodd" clip-rule="evenodd" d="M47.5856 89.6846C47.8617 89.5948 48.1579 89.7459 48.2476 90.0215C48.3372 90.298 48.1865 90.594 47.9107 90.6835C47.6349 90.7731 47.3384 90.6227 47.2488 90.3466C47.1591 90.0707 47.31 89.7743 47.5856 89.6846Z" fill="#000004" stroke="#1A1A18" stroke-width="0.755868" stroke-miterlimit="22.926"/>
<path fill-rule="evenodd" clip-rule="evenodd" d="M27.9669 94.6248C28.2427 94.535 28.5389 94.6861 28.6288 94.9617C28.7182 95.2376 28.5675 95.5338 28.2915 95.6234C28.0154 95.7131 27.7192 95.5624 27.6298 95.2866C27.5404 95.0106 27.6911 94.7142 27.9669 94.6248H27.9669Z" fill="#000004" stroke="#1A1A18" stroke-width="0.755868" stroke-miterlimit="22.926"/>
<path fill-rule="evenodd" clip-rule="evenodd" d="M10.1601 75.944C10.865 75.715 11.622 76.1003 11.8509 76.8054C12.0803 77.5107 11.6946 78.2677 10.9895 78.4967C10.2848 78.726 9.52762 78.3404 9.29828 77.6352C9.06909 76.9308 9.45498 76.1733 10.1601 75.944" fill="white"/>
<path fill-rule="evenodd" clip-rule="evenodd" d="M17.7815 75.176C18.3299 74.9981 18.9194 75.2981 19.0979 75.8466C19.276 76.3952 18.9763 76.9848 18.4275 77.163C17.8789 77.3417 17.2894 77.0416 17.1111 76.4923C16.9326 75.9438 17.2327 75.3545 17.7815 75.176Z" fill="white"/>
<path fill-rule="evenodd" clip-rule="evenodd" d="M15.6831 80.3028C16.2315 80.1247 16.8212 80.4245 16.9995 80.9731C17.1782 81.5223 16.8781 82.1113 16.3293 82.2896C15.7807 82.4684 15.1908 82.168 15.0127 81.6194C14.8342 81.0704 15.1346 80.4812 15.6831 80.3028Z" fill="white"/>
<path fill-rule="evenodd" clip-rule="evenodd" d="M21.3955 79.9295C21.9441 79.7514 22.5333 80.0514 22.712 80.6C22.8906 81.1489 22.5902 81.7382 22.0414 81.9167C21.4924 82.0952 20.9031 81.7949 20.7246 81.2461C20.5467 80.697 20.8464 80.1078 21.3955 79.9295Z" fill="white"/>
<path fill-rule="evenodd" clip-rule="evenodd" d="M16.833 85.6166C17.3818 85.4378 17.9711 85.7382 18.1494 86.2866C18.3281 86.8357 18.028 87.4252 17.479 87.6035C16.9304 87.7818 16.3411 87.4819 16.1628 86.9331C15.9845 86.3845 16.2844 85.7948 16.833 85.6166" fill="white"/>
<path fill-rule="evenodd" clip-rule="evenodd" d="M10.4816 82.3995C11.0302 82.2214 11.6195 82.5215 11.7976 83.0699C11.9763 83.6189 11.6759 84.2083 11.1278 84.3863C10.5792 84.565 9.98929 84.2649 9.81143 83.7159C9.63269 83.1673 9.9326 82.5782 10.4816 82.3995Z" fill="white"/>
<path fill-rule="evenodd" clip-rule="evenodd" d="M54.043 69.3852C54.5917 69.2069 55.1812 69.507 55.3596 70.0563C55.5379 70.6042 55.2377 71.1939 54.6889 71.3726C54.1401 71.5505 53.5512 71.2506 53.3726 70.7016C53.194 70.153 53.4944 69.5637 54.043 69.3852" fill="white"/>
<path fill-rule="evenodd" clip-rule="evenodd" d="M52.8847 76.2139C53.4333 76.0359 54.023 76.3358 54.2011 76.8848C54.3794 77.4336 54.0792 78.0231 53.5305 78.2014C52.9817 78.3799 52.3926 78.0795 52.2141 77.5306C52.0362 76.982 52.3361 76.3927 52.8847 76.2139" fill="white"/>
<path fill-rule="evenodd" clip-rule="evenodd" d="M57.5841 74.429C58.133 74.2509 58.7223 74.5511 58.9004 75.0999C59.0789 75.6485 58.779 76.2379 58.2302 76.4162C57.6816 76.5947 57.0921 76.2946 56.9134 75.7458C56.7353 75.1972 57.0355 74.6077 57.5841 74.429" fill="white"/>
<path fill-rule="evenodd" clip-rule="evenodd" d="M19.4607 102.969L31.9066 99.3787L32.0039 99.7153L19.5576 103.305L19.4607 102.969Z" fill="#000004"/>
<path fill-rule="evenodd" clip-rule="evenodd" d="M19.7949 104.193L32.1136 100.188L32.2221 100.521L19.903 104.526L19.7949 104.193Z" fill="#000004"/>
<path fill-rule="evenodd" clip-rule="evenodd" d="M20.3054 105.584L32.392 100.924L32.5176 101.25L20.4312 105.911L20.3054 105.584Z" fill="#000004"/>
<path fill-rule="evenodd" clip-rule="evenodd" d="M54.6844 90.1829L42.8311 95.4068L42.9722 95.7275L54.8255 90.5033L54.6844 90.1829Z" fill="#000004"/>
<path fill-rule="evenodd" clip-rule="evenodd" d="M55.2177 91.3452L43.1958 96.1698L43.3264 96.4946L55.3482 91.6705L55.2177 91.3452Z" fill="#000004"/>
<path fill-rule="evenodd" clip-rule="evenodd" d="M55.7115 92.7358L43.4485 96.9081L43.561 97.2393L55.8246 93.0673L55.7115 92.7358Z" fill="#000004"/>
<path fill-rule="evenodd" clip-rule="evenodd" d="M155.903 71.6267C154.679 77.2469 158.631 78.8644 161.053 82.1566L156.33 91.0525C153.534 95.4274 147.501 98.0514 147.853 99.7634C149.388 100.58 151.496 97.02 154.301 96.2622C153.941 101.223 150.8 102.548 153.505 108.366C152.321 110.94 145.34 118.245 150.359 119.135C151.616 118.073 150.728 116.467 151.465 114.814C151.98 113.658 153.877 111.411 154.725 110.264C160.261 115.488 159.404 113.112 162.524 114.882C162.03 116.113 161.303 118.613 160.691 119.584C159.693 121.167 157.707 121.236 157.628 122.984C161.557 126.829 163.07 115.932 165.099 114.713C166.735 113.732 167.533 114.17 169.871 112.231C171.468 110.908 173.207 105.851 174.085 105.184C174.909 108.567 173.316 111.649 174.692 111.975C176.122 104.626 176.875 99.9724 179.822 93.2556C184.591 98.1205 200.169 101.758 196.453 88.0159C193.855 79.8915 184.045 77.9429 178.781 86.4974C175.65 83.9101 174.837 82.4769 170.867 79.8668C178.59 60.0005 157.386 59.4164 155.903 71.6267" fill="#575656"/>
<path d="M155.903 71.6267C154.679 77.2469 158.631 78.8644 161.053 82.1566L156.33 91.0525C153.534 95.4274 147.501 98.0514 147.853 99.7634C149.388 100.58 151.496 97.02 154.301 96.2622C153.941 101.223 150.8 102.548 153.505 108.366C152.321 110.94 145.34 118.245 150.359 119.135C151.616 118.073 150.728 116.467 151.465 114.814C151.98 113.658 153.877 111.411 154.725 110.264C160.261 115.488 159.404 113.112 162.524 114.882C162.03 116.113 161.303 118.613 160.691 119.584C159.693 121.167 157.707 121.236 157.628 122.984C161.557 126.829 163.07 115.932 165.099 114.713C166.735 113.732 167.533 114.17 169.871 112.231C171.468 110.908 173.207 105.851 174.085 105.184C174.909 108.567 173.316 111.649 174.692 111.975C176.122 104.626 176.875 99.9724 179.822 93.2556C184.591 98.1205 200.169 101.758 196.453 88.0159C193.855 79.8915 184.045 77.9429 178.781 86.4974C175.65 83.9101 174.837 82.4769 170.867 79.8668C178.59 60.0005 157.386 59.4164 155.903 71.6267" stroke="black" stroke-width="1.75748"/>
<path fill-rule="evenodd" clip-rule="evenodd" d="M164.309 65.8358C157.24 65.1355 156.297 78.552 164.007 78.801C171.215 79.0344 171.523 66.5494 164.309 65.8358Z" fill="#E3000F" stroke="black" stroke-width="1.75748"/>
<path fill-rule="evenodd" clip-rule="evenodd" d="M187.722 85.3051C183.36 84.5042 176.786 92.1603 186.825 93.9864C194.799 95.4366 193.959 86.45 187.722 85.3051Z" fill="#E3000F" stroke="black" stroke-width="1.75748"/>
<path fill-rule="evenodd" clip-rule="evenodd" d="M167.92 87.8166C163.582 86.6588 161.575 92.1912 166.632 93.5987C171.023 94.8206 171.603 88.8 167.92 87.8166Z" fill="#FCFCFC"/>
<path fill-rule="evenodd" clip-rule="evenodd" d="M166.758 89.9131L166.488 92.0018C167.059 91.5473 167.983 91.0024 168.298 90.6907C168.089 90.113 167.79 89.5503 166.758 89.9131Z" fill="#1A1A18"/>
<path fill-rule="evenodd" clip-rule="evenodd" d="M175.455 91.8643C176.1 92.2154 176.339 93.0227 175.988 93.6679C175.636 94.3131 174.829 94.5515 174.184 94.2004C173.539 93.849 173.3 93.0418 173.651 92.3967C174.003 91.7518 174.81 91.5134 175.455 91.8643Z" fill="white"/>
<path fill-rule="evenodd" clip-rule="evenodd" d="M164.247 84.6615C164.892 85.0126 165.13 85.8201 164.779 86.4652C164.428 87.1104 163.621 87.3488 162.976 86.9976C162.33 86.6467 162.092 85.839 162.443 85.1939C162.794 84.549 163.602 84.3104 164.247 84.6615Z" fill="white"/>
<path fill-rule="evenodd" clip-rule="evenodd" d="M175.04 92.8604C175.208 92.952 175.27 93.1624 175.178 93.3308C175.087 93.4993 174.876 93.5611 174.708 93.4696C174.54 93.3781 174.478 93.1674 174.569 92.9993C174.661 92.831 174.871 92.7687 175.04 92.8605V92.8604Z" fill="#000004" stroke="#1A1A18" stroke-width="0.755868" stroke-miterlimit="22.926"/>
<path fill-rule="evenodd" clip-rule="evenodd" d="M163.769 85.6995C163.937 85.7908 163.999 86.0017 163.908 86.17C163.817 86.3383 163.606 86.4004 163.437 86.3091C163.269 86.2169 163.207 86.0069 163.299 85.8382C163.39 85.67 163.6 85.6079 163.769 85.6995L163.769 85.6995Z" fill="#000004" stroke="#1A1A18" stroke-width="0.755868" stroke-miterlimit="22.926"/>
<path fill-rule="evenodd" clip-rule="evenodd" d="M163.292 67.7868C163.743 67.9763 163.956 68.4963 163.766 68.9477C163.576 69.399 163.056 69.6111 162.605 69.4214C162.154 69.2317 161.941 68.7117 162.131 68.2605C162.321 67.8091 162.841 67.5971 163.292 67.7868Z" fill="white"/>
<path fill-rule="evenodd" clip-rule="evenodd" d="M167.422 70.6927C167.774 70.8403 167.939 71.2448 167.791 71.5964C167.643 71.9478 167.239 72.1126 166.888 71.9655C166.536 71.8175 166.371 71.4132 166.519 71.0618C166.666 70.7104 167.071 70.5451 167.422 70.6927Z" fill="white"/>
<path fill-rule="evenodd" clip-rule="evenodd" d="M164.164 72.3324C164.515 72.4798 164.68 72.8848 164.532 73.2359C164.385 73.5873 163.98 73.7525 163.629 73.6049C163.277 73.4569 163.112 73.0524 163.26 72.7014C163.408 72.3498 163.812 72.1848 164.164 72.3324Z" fill="white"/>
<path fill-rule="evenodd" clip-rule="evenodd" d="M167.174 74.6155C167.525 74.7629 167.69 75.1679 167.543 75.5193C167.395 75.8704 166.99 76.0356 166.639 75.8877C166.288 75.7401 166.122 75.3355 166.27 74.9843C166.418 74.6327 166.823 74.4681 167.174 74.6155Z" fill="white"/>
<path fill-rule="evenodd" clip-rule="evenodd" d="M162.441 75.4874C162.792 75.6353 162.957 76.0401 162.809 76.3909C162.662 76.7427 162.257 76.9075 161.906 76.7601C161.555 76.6126 161.39 76.2074 161.537 75.8564C161.685 75.505 162.089 75.3398 162.441 75.4874" fill="white"/>
<path fill-rule="evenodd" clip-rule="evenodd" d="M160.656 71.1494C161.007 71.297 161.172 71.7017 161.024 72.0531C160.876 72.4041 160.472 72.5692 160.121 72.4215C159.769 72.2739 159.604 71.8696 159.752 71.5182C159.899 71.1668 160.304 71.0015 160.656 71.1494Z" fill="white"/>
<path fill-rule="evenodd" clip-rule="evenodd" d="M187.701 86.7373C188.036 86.9191 188.16 87.3384 187.978 87.6728C187.795 88.008 187.377 88.1317 187.042 87.9494C186.707 87.7672 186.583 87.3481 186.765 87.0133C186.947 86.6788 187.366 86.5548 187.701 86.7373Z" fill="white"/>
<path fill-rule="evenodd" clip-rule="evenodd" d="M183.903 89.2903C184.238 89.4728 184.361 89.8918 184.179 90.2269C183.997 90.5615 183.578 90.6852 183.243 90.5029C182.908 90.3207 182.784 89.9016 182.967 89.5668C183.149 89.232 183.568 89.1081 183.903 89.2903" fill="white"/>
<path fill-rule="evenodd" clip-rule="evenodd" d="M186.892 90.7433C187.227 90.9255 187.35 91.3446 187.168 91.6794C186.986 92.0144 186.567 92.1381 186.232 91.9554C185.897 91.7738 185.774 91.3543 185.956 91.0198C186.138 90.685 186.557 90.5615 186.892 90.7433Z" fill="white"/>
<path fill-rule="evenodd" clip-rule="evenodd" d="M155.903 85.4089L163.278 89.748L163.16 89.9477L155.785 85.6082L155.903 85.4089Z" fill="#000004"/>
<path fill-rule="evenodd" clip-rule="evenodd" d="M155.467 86.1147L162.983 90.2048L162.873 90.4074L155.356 86.3177L155.467 86.1147Z" fill="#000004"/>
<path fill-rule="evenodd" clip-rule="evenodd" d="M155.031 87.0071L162.756 90.6874L162.656 90.8961L154.931 87.2154L155.031 87.0071Z" fill="#000004"/>
<path fill-rule="evenodd" clip-rule="evenodd" d="M178.029 96.4929L170.139 93.1804L170.049 93.3936L177.939 96.7061L178.029 96.4929Z" fill="#000004"/>
<path fill-rule="evenodd" clip-rule="evenodd" d="M177.717 97.2816L169.943 93.7065L169.846 93.9166L177.621 97.4917L177.717 97.2816Z" fill="#000004"/>
<path fill-rule="evenodd" clip-rule="evenodd" d="M177.261 98.1534L169.689 94.1663L169.581 94.3711L177.153 98.3582L177.261 98.1534Z" fill="#000004"/>
<path fill-rule="evenodd" clip-rule="evenodd" d="M189.818 89.4979C190.153 89.68 190.277 90.0995 190.095 90.434C189.913 90.7688 189.494 90.8926 189.159 90.7101C188.824 90.528 188.7 90.1092 188.882 89.7742C189.065 89.4394 189.483 89.3157 189.818 89.4979" fill="white"/>
<path fill-rule="evenodd" clip-rule="evenodd" d="M94.194 13.8245C94.8876 20.5253 99.8756 20.8809 103.775 23.6581L101.772 35.2837C100.261 41.1739 94.5077 46.2989 95.5242 48.0754C97.5307 48.4234 98.5741 43.691 101.419 41.8225C102.832 47.4739 99.8215 50.0962 104.958 55.5815C104.583 58.878 99.4855 69.5594 105.395 68.7147C106.406 67.0717 104.831 65.6099 105.047 63.5015C105.197 62.0265 106.486 58.8323 107.011 57.2474C115.08 61.0352 113.258 58.7047 117.376 59.5345C117.277 61.0842 117.382 64.1321 117.056 65.437C116.525 67.5627 114.34 68.3647 114.89 70.3388C120.668 73.181 118.367 60.5026 120.18 58.405C121.642 56.714 122.69 56.9105 124.583 53.8988C125.876 51.8425 125.961 45.579 126.694 44.5165C128.848 47.9789 128.202 51.9913 129.853 51.8503C128.757 43.1505 127.894 37.697 128.717 29.1471C135.802 32.8162 154.465 31.1681 145.307 17.2354C139.445 9.14607 127.818 10.5641 125.088 22.0075C120.658 20.2729 119.229 18.9756 113.857 17.5227C115.188 -7.40565 91.3804 -0.303449 94.194 13.8252" fill="#575656"/>
<path d="M94.194 13.8245C94.8876 20.5253 99.8756 20.8809 103.775 23.6581L101.772 35.2837C100.261 41.1739 94.5077 46.2989 95.5242 48.0754C97.5307 48.4234 98.5741 43.691 101.419 41.8225C102.832 47.4739 99.8215 50.0962 104.958 55.5815C104.583 58.878 99.4855 69.5594 105.395 68.7147C106.406 67.0717 104.831 65.6099 105.047 63.5015C105.197 62.0265 106.486 58.8323 107.011 57.2474C115.08 61.0352 113.258 58.7047 117.376 59.5345C117.277 61.0842 117.382 64.1321 117.056 65.437C116.525 67.5627 114.34 68.3647 114.89 70.3388C120.668 73.181 118.367 60.5026 120.18 58.405C121.642 56.714 122.69 56.9105 124.583 53.8988C125.876 51.8425 125.961 45.579 126.694 44.5165C128.848 47.9789 128.202 51.9913 129.853 51.8503C128.757 43.1505 127.894 37.697 128.717 29.1471C135.802 32.8162 154.465 31.1681 145.307 17.2354C139.445 9.14607 127.818 10.5641 125.088 22.0075C120.658 20.2729 119.229 18.9756 113.857 17.5227C115.188 -7.40565 91.3804 -0.303449 94.194 13.8252" stroke="black" stroke-width="1.75748"/>
<path fill-rule="evenodd" clip-rule="evenodd" d="M103.493 4.86411C95.2307 5.84626 97.5369 21.4287 106.417 19.7692C114.72 18.2181 111.924 3.86116 103.493 4.86411Z" fill="#009EE3" stroke="black" stroke-width="1.75748"/>
<path fill-rule="evenodd" clip-rule="evenodd" d="M134.586 17.4278C129.439 18.1316 124.924 29.054 136.761 27.4159C146.165 26.1145 141.943 16.4219 134.586 17.4278" fill="#009EE3"/>
<path d="M134.586 17.4278C129.439 18.1316 124.924 29.054 136.761 27.4159C146.165 26.1145 141.943 16.4219 134.586 17.4278" stroke="black" stroke-width="1.75748"/>
<path fill-rule="evenodd" clip-rule="evenodd" d="M113.456 27.4594C108.205 27.7574 107.994 34.6473 114.136 34.3636C119.468 34.1185 117.913 27.2062 113.456 27.4594Z" fill="#FCFCFC"/>
<path fill-rule="evenodd" clip-rule="evenodd" d="M112.958 30.2137L113.42 32.6368C113.889 31.9217 114.719 30.9775 114.955 30.5159C114.512 29.9491 113.973 29.4327 112.958 30.2137" fill="#1A1A18"/>
<path fill-rule="evenodd" clip-rule="evenodd" d="M123.336 29.1903C124.182 29.345 124.742 30.1561 124.588 31.0028C124.433 31.849 123.622 32.4092 122.775 32.2544C121.929 32.1001 121.369 31.2888 121.524 30.4424C121.678 29.5961 122.49 29.0353 123.336 29.1903" fill="white"/>
<path fill-rule="evenodd" clip-rule="evenodd" d="M108.225 25.28C109.071 25.4346 109.632 26.2457 109.477 27.0924C109.322 27.9387 108.511 28.4988 107.665 28.344C106.818 28.1896 106.258 27.378 106.413 26.532C106.567 25.6859 107.379 25.1256 108.225 25.28Z" fill="white"/>
<path fill-rule="evenodd" clip-rule="evenodd" d="M123.232 30.4586C123.453 30.4986 123.599 30.7107 123.558 30.9314C123.519 31.152 123.306 31.2984 123.086 31.2581C122.865 31.2178 122.719 31.0057 122.759 30.7851C122.8 30.5644 123.011 30.4183 123.232 30.4586V30.4586Z" fill="#000004" stroke="#1A1A18" stroke-width="0.755868" stroke-miterlimit="22.926"/>
<path fill-rule="evenodd" clip-rule="evenodd" d="M108.059 26.6166C108.281 26.6571 108.426 26.8686 108.386 27.0894C108.346 27.3103 108.134 27.4562 107.914 27.4161C107.693 27.3754 107.546 27.1639 107.587 26.9433C107.627 26.7223 107.839 26.5761 108.059 26.6166Z" fill="#000004" stroke="#1A1A18" stroke-width="0.755868" stroke-miterlimit="22.926"/>
<path fill-rule="evenodd" clip-rule="evenodd" d="M102.808 7.35489C103.372 7.45784 103.746 7.99874 103.643 8.56292C103.539 9.12726 102.999 9.50063 102.435 9.39753C101.87 9.29435 101.496 8.75367 101.6 8.1895C101.703 7.6253 102.244 7.25129 102.808 7.35489Z" fill="white"/>
<path fill-rule="evenodd" clip-rule="evenodd" d="M108.288 9.62998C108.727 9.7103 109.017 10.1312 108.937 10.5706C108.857 11.0094 108.436 11.3002 107.997 11.2203C107.558 11.1398 107.267 10.7188 107.347 10.2794C107.428 9.84043 107.848 9.54988 108.288 9.62998" fill="white"/>
<path fill-rule="evenodd" clip-rule="evenodd" d="M104.966 12.3446C105.405 12.4251 105.696 12.8461 105.616 13.2853C105.536 13.7243 105.115 14.015 104.675 13.9349C104.236 13.8546 103.946 13.4337 104.026 12.9943C104.106 12.5549 104.527 12.2645 104.966 12.3446" fill="white"/>
<path fill-rule="evenodd" clip-rule="evenodd" d="M108.993 14.1983C109.433 14.2784 109.723 14.6996 109.643 15.1386C109.563 15.5778 109.141 15.8685 108.702 15.7882C108.263 15.7081 107.972 15.2872 108.053 14.8476C108.133 14.4085 108.554 14.1175 108.993 14.1983" fill="white"/>
<path fill-rule="evenodd" clip-rule="evenodd" d="M103.804 16.3901C104.243 16.4702 104.534 16.8916 104.453 17.3305C104.373 17.7698 103.952 18.0606 103.513 17.98C103.074 17.8999 102.783 17.4786 102.863 17.04C102.944 16.6005 103.365 16.3096 103.804 16.3901" fill="white"/>
<path fill-rule="evenodd" clip-rule="evenodd" d="M100.649 11.8693C101.088 11.9494 101.379 12.3706 101.299 12.8095C101.219 13.2485 100.798 13.5397 100.358 13.4592C99.9193 13.3789 99.6286 12.9577 99.7089 12.5188C99.789 12.0797 100.21 11.789 100.649 11.8693Z" fill="white"/>
<path fill-rule="evenodd" clip-rule="evenodd" d="M135.084 19.022C135.523 19.1017 135.814 19.523 135.734 19.9621C135.653 20.401 135.233 20.6925 134.793 20.6117C134.354 20.5318 134.064 20.1106 134.144 19.6717C134.224 19.232 134.645 18.9412 135.084 19.022" fill="white"/>
<path fill-rule="evenodd" clip-rule="evenodd" d="M131.805 23.2397C132.244 23.3198 132.535 23.7405 132.454 24.1799C132.374 24.6191 131.953 24.9099 131.514 24.8298C131.075 24.7495 130.784 24.3283 130.864 23.8891C130.944 23.4501 131.365 23.1593 131.805 23.2397Z" fill="white"/>
<path fill-rule="evenodd" clip-rule="evenodd" d="M135.644 23.7607C136.084 23.841 136.374 24.2619 136.294 24.7011C136.214 25.1401 135.793 25.4313 135.354 25.3508C134.915 25.2704 134.624 24.8497 134.704 24.4104C134.784 23.9711 135.205 23.6803 135.644 23.7607" fill="white"/>
<path fill-rule="evenodd" clip-rule="evenodd" d="M99.2172 29.1636L109.01 31.295L108.952 31.56L99.1597 29.4286L99.2172 29.1636Z" fill="#000004"/>
<path fill-rule="evenodd" clip-rule="evenodd" d="M98.989 30.1245L108.848 31.9272L108.799 32.1934L98.9402 30.3908L98.989 30.1245Z" fill="#000004"/>
<path fill-rule="evenodd" clip-rule="evenodd" d="M98.8228 31.2559L108.764 32.527L108.73 32.7958L98.7881 31.5248L98.8228 31.2559Z" fill="#000004"/>
<path fill-rule="evenodd" clip-rule="evenodd" d="M127.882 33.4145L117.892 32.6135L117.87 32.8829L127.86 33.6846L127.882 33.4145Z" fill="#000004"/>
<path fill-rule="evenodd" clip-rule="evenodd" d="M127.819 34.4003L117.861 33.2654L117.831 33.5342L127.788 34.6699L127.819 34.4003Z" fill="#000004"/>
<path fill-rule="evenodd" clip-rule="evenodd" d="M127.653 35.5295L117.771 33.8613L117.726 34.1284L127.608 35.7968L127.653 35.5295Z" fill="#000004"/>
<path fill-rule="evenodd" clip-rule="evenodd" d="M138.446 21.3114C138.885 21.3919 139.177 21.8126 139.096 22.252C139.016 22.691 138.595 22.9821 138.156 22.9017C137.717 22.8218 137.426 22.4007 137.506 21.9617C137.587 21.522 138.007 21.2313 138.446 21.3114Z" fill="white"/>
<path fill-rule="evenodd" clip-rule="evenodd" d="M148.603 80.3827C144.28 80.4229 103.7 85.0498 95.9367 86.16C90.6932 86.9095 93.5527 86.1393 90.7786 90.179C87.48 94.9828 81.0385 95.4072 76.9697 91.2731C74.2004 88.4606 75.5418 88.4687 70.3044 89.0839C52.4415 91.183 56.3324 92.9305 56.4796 134.64C56.5217 146.481 62.4744 143.126 85.1705 140.709C96.5455 139.498 109.186 137.841 120.827 137.077C118.38 134.127 113.723 130.885 115.161 123.99C116.262 118.706 120.298 115.132 125.927 114.329C138.609 112.518 144.913 124.434 137.744 135.22C159.352 132.949 154.364 137.341 154.479 93.6573C154.498 86.5449 156.164 80.6364 148.781 80.3849C148.731 80.3832 148.672 80.3821 148.603 80.3828L148.603 80.3827ZM139.439 85.9486C147.677 85.62 151.248 98.1281 143.052 101.672C133.45 105.824 123.324 92.7407 135.643 86.9387C136.99 86.3042 138.262 85.9956 139.439 85.9487L139.439 85.9486ZM111.689 92.3673C111.772 92.3671 111.855 92.3682 111.937 92.3715C115.898 92.5299 118.857 96.6161 115.848 102.431C105.935 105.598 102.947 96.839 107.826 93.6039C109.101 92.7588 110.439 92.3691 111.689 92.3672L111.689 92.3673ZM78.1475 113.893C78.2363 113.893 78.3246 113.894 78.4124 113.896C88.2491 114.168 92.1395 129.177 81.0778 132.602C68.443 136.515 60.8963 119.87 73.8584 114.759C75.3788 114.159 76.8161 113.892 78.1478 113.893L78.1475 113.893ZM105.164 114.407C105.423 114.409 105.671 114.427 105.904 114.462C106.835 114.598 107.525 114.981 108.095 115.65C108.665 116.32 109.115 117.275 109.335 118.15C109.555 119.026 109.548 119.82 109.331 120.655C109.114 121.49 108.687 122.364 108.158 122.975C107.628 123.585 106.996 123.931 106.19 124.115C105.385 124.299 104.407 124.321 103.156 123.861C101.905 123.4 100.381 122.456 99.4877 121.853C98.595 121.25 98.3343 120.987 98.1802 120.58C98.0262 120.173 97.9799 119.621 98.1148 118.974C98.2498 118.327 98.5658 117.584 99.3493 116.83C100.133 116.076 101.384 115.311 102.594 114.874C103.502 114.545 104.386 114.401 105.164 114.407L105.164 114.407Z" fill="#FFED00" stroke="black" stroke-width="1.75748"/>
<path fill-rule="evenodd" clip-rule="evenodd" d="M152.146 75.8817C152.314 71.4206 147.195 70.4068 143.823 68.468C140.289 66.4357 137.288 64.7644 133.529 62.5711C126.153 58.2648 119.47 54.4637 112.405 50.4345C99.9102 43.3084 104.772 47.0219 84.2703 63.1261C81.3997 65.3807 58.2169 84.6587 59.7072 86.9232C61.4199 89.5294 86.1632 84.9616 90.1401 84.447C100.34 83.1271 146.301 78.2637 152.148 75.8809" fill="#FFED00"/>
<path d="M152.146 75.8817C152.314 71.4206 147.195 70.4068 143.823 68.468C140.289 66.4357 137.288 64.7644 133.529 62.5711C126.153 58.2648 119.47 54.4637 112.405 50.4345C99.9102 43.3084 104.772 47.0219 84.2703 63.1261C81.3997 65.3807 58.2169 84.6587 59.7072 86.9232C61.4199 89.5294 86.1632 84.9616 90.1401 84.447C100.34 83.1271 146.301 78.2637 152.148 75.8809" stroke="black" stroke-width="1.75748"/>
</svg>
