<?xml version="1.0" encoding="utf-8"?>
<!-- Generator: Adobe Illustrator 19.0.0, SVG Export Plug-In . SVG Version: 6.00 Build 0)  -->
<svg version="1.1" xmlns="http://www.w3.org/2000/svg" xmlns:xlink="http://www.w3.org/1999/xlink" x="0px" y="0px"
	 viewBox="0 0 1600 1400" style="enable-background:new 0 0 1600 1400;" xml:space="preserve">
<style type="text/css">
	.st0{fill:url(#XMLID_5_);}
	.st1{fill:url(#XMLID_6_);}
	.st2{fill:url(#XMLID_7_);}
	.st3{fill:url(#XMLID_8_);}
	.st4{fill:url(#XMLID_9_);}
	.st5{fill:url(#XMLID_10_);}
	.st6{fill:url(#XMLID_11_);}
	.st7{fill:url(#XMLID_12_);}
	.st8{fill:url(#XMLID_13_);}
	.st9{fill:url(#XMLID_14_);}
	.st10{fill:url(#XMLID_15_);}
	.st11{fill:url(#XMLID_16_);}
	.st12{fill:url(#XMLID_17_);}
	.st13{fill:url(#XMLID_18_);}
	.st14{fill:url(#XMLID_19_);}
	.st15{fill:url(#XMLID_20_);}
	.st16{fill:url(#XMLID_21_);}
	.st17{fill:url(#XMLID_22_);}
	.st18{fill:url(#XMLID_23_);}
	.st19{fill:url(#XMLID_24_);}
	.st20{fill:url(#XMLID_25_);}
	.st21{fill:url(#XMLID_26_);}
	.st22{fill:url(#XMLID_27_);}
	.st23{fill:url(#XMLID_28_);}
	.st24{fill:#FFFFFF;}
	.st25{fill:url(#XMLID_29_);}
	.st26{fill:url(#XMLID_30_);}
	.st27{fill:url(#XMLID_31_);}
	.st28{fill:url(#XMLID_32_);}
	.st29{fill:url(#XMLID_33_);}
	.st30{fill:#EF5A77;}
	.st31{fill:url(#XMLID_34_);}
	.st32{fill:url(#XMLID_35_);}
	.st33{fill:url(#XMLID_36_);}
	.st34{fill:url(#XMLID_37_);}
	.st35{fill:url(#XMLID_38_);}
	.st36{fill:url(#XMLID_39_);}
	.st37{fill:url(#XMLID_40_);}
	.st38{fill:url(#XMLID_41_);}
	.st39{fill:#F5E9EA;}
	.st40{fill:#1B1A49;}
	.st41{fill:url(#XMLID_42_);}
	.st42{fill:url(#XMLID_43_);}
	.st43{fill:url(#XMLID_44_);}
	.st44{fill:url(#XMLID_45_);}
	.st45{fill:url(#XMLID_46_);}
	.st46{fill:url(#XMLID_47_);}
	.st47{fill:url(#XMLID_48_);}
	.st48{fill:url(#XMLID_49_);}
	.st49{fill:url(#XMLID_50_);}
	.st50{fill:url(#XMLID_51_);}
	.st51{fill:url(#XMLID_52_);}
	.st52{fill:url(#XMLID_53_);}
	.st53{fill:url(#XMLID_54_);}
	.st54{fill:url(#XMLID_55_);}
	.st55{fill:url(#XMLID_56_);}
	.st56{fill:url(#XMLID_57_);}
	.st57{fill:url(#XMLID_58_);}
	.st58{fill:url(#XMLID_59_);}
	.st59{fill:url(#XMLID_60_);}
	.st60{fill:url(#XMLID_61_);}
	.st61{fill:url(#XMLID_62_);}
	.st62{fill:url(#XMLID_63_);}
	.st63{fill:url(#XMLID_64_);}
	.st64{fill:url(#XMLID_65_);}
	.st65{fill:url(#XMLID_66_);}
	.st66{fill:url(#XMLID_67_);}
	.st67{fill:url(#XMLID_68_);}
	.st68{fill:url(#XMLID_69_);}
	.st69{fill:url(#XMLID_70_);}
	.st70{fill:url(#XMLID_71_);}
	.st71{fill:url(#XMLID_72_);}
	.st72{fill:url(#XMLID_73_);}
	.st73{fill:url(#XMLID_74_);}
	.st74{fill:url(#XMLID_75_);}
	.st75{fill:url(#XMLID_76_);}
	.st76{fill:url(#XMLID_77_);}
	.st77{fill:url(#XMLID_78_);}
	.st78{fill:url(#XMLID_79_);}
	.st79{fill:url(#XMLID_80_);}
	.st80{fill:url(#XMLID_81_);}
	.st81{fill:url(#XMLID_82_);}
	.st82{fill:url(#XMLID_83_);}
	.st83{fill:url(#XMLID_85_);}
	.st84{fill:url(#XMLID_86_);}
	.st85{fill:url(#XMLID_87_);}
	.st86{fill:url(#XMLID_88_);}
	.st87{fill:url(#XMLID_89_);}
	.st88{fill:url(#XMLID_90_);}
	.st89{fill:url(#XMLID_91_);}
	.st90{fill:url(#XMLID_92_);}
	.st91{fill:url(#XMLID_93_);}
	.st92{fill:url(#XMLID_94_);}
	.st93{fill:url(#XMLID_95_);}
	.st94{fill:url(#XMLID_96_);}
	.st95{fill:url(#XMLID_97_);}
	.st96{fill:url(#XMLID_98_);}
	.st97{fill:url(#XMLID_99_);}
</style>
<g id="TABLE">
	<g id="XMLID_334_">
		<linearGradient id="XMLID_5_" gradientUnits="userSpaceOnUse" x1="391.7903" y1="1138.6686" x2="1121.0129" y2="1138.6686">
			<stop  offset="0" style="stop-color:#7E331A"/>
			<stop  offset="1" style="stop-color:#642B1D"/>
		</linearGradient>
		<rect id="XMLID_333_" x="391.8" y="1113.3" class="st0" width="729.2" height="50.8"/>
		<linearGradient id="XMLID_6_" gradientUnits="userSpaceOnUse" x1="521.6854" y1="939.882" x2="539.4" y2="1106.6074">
			<stop  offset="0" style="stop-color:#7E331A"/>
			<stop  offset="1" style="stop-color:#642B1D"/>
		</linearGradient>
		<rect id="XMLID_823_" x="391.8" y="1113.3" class="st1" width="302" height="50.8"/>
		<g id="XMLID_811_">
			<linearGradient id="XMLID_7_" gradientUnits="userSpaceOnUse" x1="516.6843" y1="1213.8883" x2="653.3704" y2="1051.782">
				<stop  offset="0" style="stop-color:#7E331A"/>
				<stop  offset="1" style="stop-color:#642B1D"/>
			</linearGradient>
			<path id="XMLID_816_" class="st2" d="M650.3,1113.3c-10,10.6-25,22.1-46.8,29c-22.8,7.2-40.4,14.2-53.3,21.8h-40.3
				c10.4-11.7,25.9-22.9,48.4-28c21.6-4.9,38.2-13.7,50.4-22.7H650.3z"/>
			<linearGradient id="XMLID_8_" gradientUnits="userSpaceOnUse" x1="586.5245" y1="1261.0616" x2="719.1016" y2="1103.8285">
				<stop  offset="0" style="stop-color:#7E331A"/>
				<stop  offset="1" style="stop-color:#642B1D"/>
			</linearGradient>
			<path id="XMLID_817_" class="st3" d="M693.8,1130.2v33.9h-49.9c5.1-4.8,10.4-10.7,14.3-17.5
				C668.5,1128.8,690.4,1129.9,693.8,1130.2z"/>
			<g id="XMLID_808_">
				<linearGradient id="XMLID_9_" gradientUnits="userSpaceOnUse" x1="447.1889" y1="1161.0128" x2="582.0177" y2="1001.1091">
					<stop  offset="0" style="stop-color:#7E331A"/>
					<stop  offset="1" style="stop-color:#642B1D"/>
				</linearGradient>
				<path id="XMLID_815_" class="st4" d="M516.7,1113.3c-7.9,15.6-22.8,33.7-50.8,49.7c-0.7,0.4-1.3,0.8-2,1.1h-52
					c11-5.5,23.8-12.8,38.6-22.2c15.6-9.9,25.7-19.7,32.2-28.6H516.7z"/>
				<linearGradient id="XMLID_10_" gradientUnits="userSpaceOnUse" x1="419.1862" y1="1140.3993" x2="551.5919" y2="983.3694">
					<stop  offset="0" style="stop-color:#7E331A"/>
					<stop  offset="1" style="stop-color:#642B1D"/>
				</linearGradient>
				<path id="XMLID_809_" class="st5" d="M417.2,1126.3c-4.9,3.6-23.5,20.7-9.8,23.2c13.6,2.6,41-19.9,39-25.6
					C443,1114.7,427.5,1118.8,417.2,1126.3z"/>
			</g>
		</g>
		<g id="XMLID_805_">
			<linearGradient id="XMLID_11_" gradientUnits="userSpaceOnUse" x1="889.2447" y1="1230.9386" x2="1056.9137" y2="1032.0873">
				<stop  offset="0" style="stop-color:#7E331A"/>
				<stop  offset="1" style="stop-color:#642B1D"/>
			</linearGradient>
			<path id="XMLID_818_" class="st6" d="M1060,1113.3c-13.2,10.6-33.1,22.1-62,29c-30.2,7.2-53.4,14.2-70.5,21.8h-53.3
				c13.8-11.7,34.3-22.9,64.1-28c28.5-4.9,50.5-13.7,66.8-22.7H1060z"/>
			<linearGradient id="XMLID_12_" gradientUnits="userSpaceOnUse" x1="986.3068" y1="1280.5577" x2="1142.674" y2="1095.1101">
				<stop  offset="0" style="stop-color:#7E331A"/>
				<stop  offset="1" style="stop-color:#642B1D"/>
			</linearGradient>
			<path id="XMLID_814_" class="st7" d="M1117.6,1130.2v33.9h-66.1c6.8-4.8,13.8-10.7,19-17.5
				C1084,1128.8,1113.1,1129.9,1117.6,1130.2z"/>
			<g id="XMLID_806_">
				<linearGradient id="XMLID_13_" gradientUnits="userSpaceOnUse" x1="792.1296" y1="1164.7914" x2="954.6902" y2="971.9985">
					<stop  offset="0" style="stop-color:#7E331A"/>
					<stop  offset="1" style="stop-color:#642B1D"/>
				</linearGradient>
				<path id="XMLID_813_" class="st8" d="M883.1,1113.3c-10.4,15.6-30.1,33.7-67.3,49.7c-0.9,0.4-1.7,0.8-2.6,1.1h-68.8
					c14.5-5.5,31.5-12.8,51.1-22.2c20.6-9.9,34-19.7,42.6-28.6H883.1z"/>
				<linearGradient id="XMLID_14_" gradientUnits="userSpaceOnUse" x1="754.8788" y1="1141.6394" x2="911.3999" y2="956.0092">
					<stop  offset="0" style="stop-color:#7E331A"/>
					<stop  offset="1" style="stop-color:#642B1D"/>
				</linearGradient>
				<path id="XMLID_807_" class="st9" d="M751.4,1126.3c-6.5,3.6-31,20.7-13,23.2c18,2.6,54.3-19.9,51.6-25.6
					C785.5,1114.7,765,1118.8,751.4,1126.3z"/>
			</g>
		</g>
	</g>
</g>
<g id="LAPTOP">
	<g id="XMLID_856_">
		<g id="XMLID_804_">
			<linearGradient id="XMLID_15_" gradientUnits="userSpaceOnUse" x1="721.0465" y1="1111.2166" x2="721.0465" y2="1076.6289">
				<stop  offset="0" style="stop-color:#1E5D5D"/>
				<stop  offset="1" style="stop-color:#0D5475"/>
			</linearGradient>
			<path id="XMLID_311_" class="st10" d="M935.3,1100.7c0,3.7-2.1,7.1-5.4,9.6c-3.3,2.4-7.9,4-13,4H534c-11.9,0-22.1-5.7-25.7-13.5
				c-1-2-1.5-4.2-1.5-6.5v-7h410.2C927.1,1087.2,935.3,1093.2,935.3,1100.7z"/>
			<linearGradient id="XMLID_16_" gradientUnits="userSpaceOnUse" x1="721.7793" y1="1044.9293" x2="721.7793" y2="1136.8778">
				<stop  offset="0" style="stop-color:#0C4646"/>
				<stop  offset="1" style="stop-color:#0D5475"/>
			</linearGradient>
			<path id="XMLID_307_" class="st11" d="M935.3,1100.7c0,3.7-2.1,7.1-5.4,9.6c-3.3,2.4-7.9,4-13,4H534c-11.9,0-22.1-5.7-25.7-13.5
				H935.3z"/>
			<linearGradient id="XMLID_17_" gradientUnits="userSpaceOnUse" x1="602.4613" y1="1076.2019" x2="602.4613" y2="1124.3145">
				<stop  offset="0.1179" style="stop-color:#24245A"/>
				<stop  offset="1" style="stop-color:#343977"/>
			</linearGradient>
			<path id="XMLID_310_" class="st12" d="M691.1,1114.2H534c-11.9,0-22.1-5.7-25.7-13.5c-1-2-1.5-4.2-1.5-6.5v-7h177.9
				c5.4,1.9,10.6,5.1,12.6,10.5c0.4,1,0.6,2.1,0.8,3C698.9,1107,694.8,1111.5,691.1,1114.2z"/>
			<linearGradient id="XMLID_18_" gradientUnits="userSpaceOnUse" x1="603.1941" y1="1087.9625" x2="603.1941" y2="1146.1215">
				<stop  offset="0.1179" style="stop-color:#24245A"/>
				<stop  offset="1" style="stop-color:#171441"/>
			</linearGradient>
			<path id="XMLID_306_" class="st13" d="M691.1,1114.2H534c-11.9,0-22.1-5.7-25.7-13.5H698C698.9,1107,694.8,1111.5,691.1,1114.2z"
				/>
		</g>
		<g id="XMLID_298_">
			<linearGradient id="XMLID_19_" gradientUnits="userSpaceOnUse" x1="637.2045" y1="930.0552" x2="641.5576" y2="848.796">
				<stop  offset="0.1179" style="stop-color:#24245A"/>
				<stop  offset="1" style="stop-color:#171441"/>
			</linearGradient>
			<path id="XMLID_300_" class="st14" d="M813.5,1087.2H507c-3.8,0-7.1-2.5-8.2-6.2l-49.3-179.4c-5.4-17.5-3.7-26.2,12.1-26.2h298.5
				c3.8,0,7.1,2.5,8.2,6.2l53.4,194.9C823.2,1081.8,819.1,1087.2,813.5,1087.2z"/>
			<linearGradient id="XMLID_20_" gradientUnits="userSpaceOnUse" x1="569.6409" y1="861.639" x2="741.8331" y2="1156.6875">
				<stop  offset="0.1179" style="stop-color:#24245A"/>
				<stop  offset="1" style="stop-color:#171441"/>
			</linearGradient>
			<path id="XMLID_275_" class="st15" d="M819.4,1087.2H512.9c-3.8,0-7.1-2.5-8.2-6.2L451.3,886c-1.5-5.4,2.6-10.7,8.2-10.7H766
				c3.8,0,7.1,2.5,8.2,6.2l53.4,194.9C829,1081.8,825,1087.2,819.4,1087.2z"/>
			<linearGradient id="XMLID_21_" gradientUnits="userSpaceOnUse" x1="529.692" y1="799.6085" x2="695.1125" y2="1073.3748">
				<stop  offset="0" style="stop-color:#E0EDF3"/>
				<stop  offset="1" style="stop-color:#D1E2EE"/>
			</linearGradient>
			<polygon id="XMLID_295_" class="st16" points="818.2,1080.3 515,1080.3 460.7,882.1 763.9,882.1 			"/>
		</g>
	</g>
</g>
<g id="SMOKE_1">
	<g id="XMLID_852_">
		<g id="XMLID_302_">
			<linearGradient id="XMLID_22_" gradientUnits="userSpaceOnUse" x1="585.5229" y1="239.3248" x2="682.7992" y2="1077.1559">
				<stop  offset="0" style="stop-color:#FBECEB"/>
				<stop  offset="1" style="stop-color:#E2D9E3"/>
			</linearGradient>
			<path id="XMLID_873_" class="st17" d="M720.8,524.6c0,0-27.9,129.9-39.5,238.7c-2.5,23.5-4.3,51.8-5.7,81.7
				c-4.9,108.8-3.2,239.2-3.2,239.2h-59c0,0-3.4-105.7-16.6-221.4c-3.3-29.4-7.3-59.5-12-88.6C561.6,630.6,533,547.4,533,547.4
				s-83.2,26.6-116.1-44.1c-9.6-20.6-10.4-38.6-6.8-53.7c8.2-34.1,39.2-53.6,43.5-56.2c0.3-0.2,0.5-0.3,0.5-0.3s-30-45.9,6.8-80.3
				c12.2-11.4,24.7-15.2,35.9-15.3c16.6,0,30.4,8.2,36.6,12.6c2.2,1.6,3.4,2.6,3.4,2.6s2.4-62,65.1-61.9c0.7,0,1.4,0,2.1,0
				C668.9,252.3,667,320,667,320s4.2-3.1,10.9-6.6c13.9-7.2,38.5-15.7,58.8-0.7c27.3,20.2,12.9,60.9,10.1,68.1
				c-0.3,0.7-0.4,1.1-0.4,1.1s16.9-5,34.6,6.3c11.8,7.6,23.8,22.4,31.3,50.8C831.1,510.1,720.8,524.6,720.8,524.6z"/>
			<linearGradient id="XMLID_23_" gradientUnits="userSpaceOnUse" x1="483.5993" y1="809.8986" x2="509.7184" y2="618.3589">
				<stop  offset="0" style="stop-color:#FBECEB"/>
				<stop  offset="1" style="stop-color:#E2D9E3"/>
			</linearGradient>
			<path id="XMLID_863_" class="st18" d="M598.4,866.6l-1.6-3.7c-3.3-29.4-7.3-59.5-12-88.6C561.6,630.6,533,547.4,533,547.4
				s-83.2,26.6-116.1-44.1c-9.6-20.6-10.4-38.6-6.8-53.7c7.9,16.3,23.3,38.9,48.9,44.8c35.7,8.1,49.7,3.3,52.9,1.8
				c-3.6,1.9-19.5,10.2-29.7,13.4c-11.6,3.6-18.1,2.9-18.1,2.9s16,9.4,47.9,7.3s53-11.6,53-11.6s20.3,152.4,31.2,240.9
				S598.4,866.6,598.4,866.6z"/>
			<linearGradient id="XMLID_24_" gradientUnits="userSpaceOnUse" x1="706.8628" y1="813.1699" x2="739.3032" y2="575.2732">
				<stop  offset="0" style="stop-color:#FBECEB"/>
				<stop  offset="1" style="stop-color:#E2D9E3"/>
			</linearGradient>
			<path id="XMLID_867_" class="st19" d="M720.8,524.6c0,0-27.9,129.9-39.5,238.7c-2.5,23.5-4.3,51.8-5.7,81.7l-6.4,14
				c0,0-5.5-19.5,1.3-131.7c6.8-112.2,18.4-215.7,18.4-215.7s10.7,4.4,46.4-5.3c28.5-7.7,48.8-27.7,55.8-35.5
				c-2,1.8-5.2,4.1-10.3,6.5c-10.7,4.8-29,1.5-29,1.5s11.2-7.5,28.5-26.1c17.4-18.7,8.3-47.7,0.6-64.4c11.8,7.6,23.8,22.4,31.3,50.8
				C831.1,510.1,720.8,524.6,720.8,524.6z"/>
			<linearGradient id="XMLID_25_" gradientUnits="userSpaceOnUse" x1="472.3972" y1="290.405" x2="470.2206" y2="399.9599">
				<stop  offset="0" style="stop-color:#FBECEB"/>
				<stop  offset="1" style="stop-color:#E2D9E3"/>
			</linearGradient>
			<path id="XMLID_861_" class="st20" d="M462.5,352.4c0,0-6.8,16,4.4,30c11.1,14,17.9,16.9,17.9,16.9s-14.6,11.9-31.1-6
				c0.3-0.2,0.5-0.3,0.5-0.3s-30-45.9,6.8-80.3c12.2-11.4,24.7-15.2,35.9-15.3c-8.1,7.4-24.4,25.4-18.9,46.7c7.3,28,21.3,29,21.3,29
				s-17.4,3.4-27.1-5.8C462.5,358.3,462.5,352.4,462.5,352.4z"/>
			<linearGradient id="XMLID_26_" gradientUnits="userSpaceOnUse" x1="716.1229" y1="298.662" x2="714.1816" y2="396.3761">
				<stop  offset="0" style="stop-color:#FBECEB"/>
				<stop  offset="1" style="stop-color:#E2D9E3"/>
			</linearGradient>
			<path id="XMLID_868_" class="st21" d="M746.8,380.9c-7.3,10.8-15.9,17.7-17.2,18.7c0.6-0.6,3.1-3.5,9.3-15.5
				c6.9-13.4,3.6-38.3,3.3-40.8c0.1,0.8,0.2,4.7-2.9,16.5c-3.6,13.8-12,16.3-12,16.3s7.3-13.8-6.2-42.8
				c-9.7-20.9-31.6-21.3-43.1-19.9c13.9-7.2,38.5-15.7,58.8-0.7C763.9,333,749.6,373.7,746.8,380.9z"/>
			<linearGradient id="XMLID_27_" gradientUnits="userSpaceOnUse" x1="627.4795" y1="469.5975" x2="634.3965" y2="655.4922">
				<stop  offset="0" style="stop-color:#FBECEB"/>
				<stop  offset="1" style="stop-color:#E2D9E3"/>
			</linearGradient>
			<path id="XMLID_831_" class="st22" d="M584.9,550c0,0,10.2,80.8,14.5,128.8c4.4,48,13.5,120.6,13.5,120.6s0.5-111.5,1.9-131.4
				c1.5-19.9,1.5-46.7,1.5-46.7s6.3,29.4,6.8,53.2c0.5,23.8,1.5,31.5,1.5,31.5s5.8-46.2,8.7-69.1c2.9-22.9,5.3-29.4,5.3-29.4
				s8.7,61.8,12.6,84.3c3.9,22.5,7.3,51.9,7.3,51.9s4.8-102.9,6.8-140c1.9-37.2,10.2-77.4,10.2-77.4s-13.5,29.8-18.4,49.7
				s-7.3,25.1-7.3,25.1s-1.9-29.8-3.9-47.5s-3.4-33.3-3.4-33.3s-14.5,46.7-15.5,64.4c-1,17.7-2.4,29-2.4,29s-2.4-33.3-6.8-55.3
				c-4.4-22-4.4-22-4.4-22s-7.3,22.5-7.7,40.2s-0.5,17.7-0.5,17.7s-1.9-29.4-8.2-55.3c-6.3-25.9-8.7-31.5-8.7-31.5
				S582.9,522.3,584.9,550z"/>
			<linearGradient id="XMLID_28_" gradientUnits="userSpaceOnUse" x1="583.1397" y1="246.14" x2="562.825" y2="391.9713">
				<stop  offset="0" style="stop-color:#FBECEB"/>
				<stop  offset="1" style="stop-color:#E2D9E3"/>
			</linearGradient>
			<path id="XMLID_870_" class="st23" d="M611.5,335.5c0,0-23.6,20-53,1.1c-15.3-9.8-22-18.5-25-26.5c2.2,1.6,3.4,2.6,3.4,2.6
				s2.4-62,65.1-61.9c-5.7,2.4-14.3,8.3-19.2,21.9c-7.6,21,10.5,33.4,10.5,33.4s-12.3,1.8-21.4-6.9c-9.1-8.7-9.1-8.7-9.1-8.7
				s-1.1,16.3,17.4,31.2C598.8,336.6,611.5,335.5,611.5,335.5z"/>
		</g>
		<g id="XMLID_308_">
			<path id="XMLID_835_" class="st24" d="M584.1,389.9l-19.3,19.3c-8.6,8.6-8.6,22.6,0,31.2l19.3,19.3c2.1,2.1,2.1,5.5,0,7.6v0
				c-2.1,2.1-5.5,2.1-7.6,0l-19.3-19.3c-8.6-8.6-22.6-8.6-31.2,0l-19.3,19.3c-2.1,2.1-5.5,2.1-7.6,0l0,0c-2.1-2.1-2.1-5.5,0-7.6
				l19.3-19.3c8.6-8.6,8.6-22.6,0-31.2l-19.3-19.3c-2.1-2.1-2.1-5.5,0-7.6l0,0c2.1-2.1,5.5-2.1,7.6,0l19.3,19.3
				c8.6,8.6,22.6,8.6,31.2,0l19.3-19.3c2.1-2.1,5.5-2.1,7.6,0l0,0C586.2,384.4,586.2,387.8,584.1,389.9z"/>
			<path id="XMLID_836_" class="st24" d="M700.7,440.3l19.3,19.3c2.1,2.1,2.1,5.5,0,7.6l0,0c-2.1,2.1-5.5,2.1-7.6,0l-19.3-19.3
				c-8.6-8.6-22.5-8.6-31.2,0l-19.3,19.3c-2.1,2.1-5.5,2.1-7.6,0l0,0c-2.1-2.1-2.1-5.5,0-7.6l19.3-19.3c8.6-8.6,8.6-22.6,0-31.2
				l-19.3-19.3c-2.1-2.1-2.1-5.5,0-7.6l0,0c2.1-2.1,5.5-2.1,7.6,0l19.3,19.3c8.6,8.6,22.5,8.6,31.2,0l19.3-19.3
				c2.1-2.1,5.5-2.1,7.6,0l0,0c2.1,2.1,2.1,5.5,0,7.6l-19.3,19.3C692.1,417.7,692.1,431.7,700.7,440.3z"/>
		</g>
	</g>
</g>
<g id="SMOKE_2">
	<g id="XMLID_305_">
		<linearGradient id="XMLID_29_" gradientUnits="userSpaceOnUse" x1="575.9742" y1="348.7357" x2="654.3315" y2="1023.6191">
			<stop  offset="0" style="stop-color:#FBECEB"/>
			<stop  offset="1" style="stop-color:#E2D9E3"/>
		</linearGradient>
		<path id="XMLID_866_" class="st25" d="M866.2,990.7c0,0-32,61.5-40.9,76.2c-9,14.7-12,20.3-12,20.3H557.7c0,0-3-1.5-7.9-4.1
			c-6.8-3.7-17.1-9.9-27.5-18c-16.4-12.6-65.3-37.3-66.8-38.1c1.5,0.3,43.2,9,62.4,12.3c19.5,3.4,32.7,7.5,32.7,7.5
			s-22.1-15.9-56.5-41.6c-33.8-25.2-56.9-42.8-57.8-43.5c1.4,0.3,47.6,11.7,70.3,19.8c23.1,8.2,40.8,14.2,40.8,14.2
			s-35.8-39.3-72.1-78.8c-35.7-38.9-55.5-60.9-56.1-61.6c1.2,0.8,78.3,48.1,105.9,67.5c27.9,19.5,43.4,30.2,43.4,30.2
			s-29.3-39.4-63.3-90.4c-33-49.3-44.7-64-45.4-64.9c1.7,1.5,82.6,73.5,104.5,93.7c20,18.4,21.9,20.2,22.1,20.3l-60.9-117.9
			c0,0,51.4,49.5,78,78.4c26.6,28.9,31.2,28.9,31.2,28.9s14.8-14.9,34.6-42.1c19.7-27.1,37.5-43.7,37.5-43.7s-23.2,70.9-29,89.6
			c-5.8,18.7-5.8,18.7-5.8,18.7l40.6-40.8L702,940.2l77.9-79.9l-19.5,109.6c0,0,27.6-25.4,48.5-45.1c20.9-19.7,31.4-30.6,31.4-30.6
			l-56.1,122l65.4-85.1l-44.8,114L866.2,990.7z"/>
		<g id="XMLID_277_">
			<linearGradient id="XMLID_30_" gradientUnits="userSpaceOnUse" x1="629.8873" y1="911.9384" x2="701.7265" y2="1137.7186">
				<stop  offset="0" style="stop-color:#FBECEB"/>
				<stop  offset="1" style="stop-color:#E2D9E3"/>
			</linearGradient>
			<path id="XMLID_865_" class="st26" d="M824.8,1038.1l-24.5,49H561.6c0,0-42.3-38.2-43-38.5l59.1,17.1c0,0-10.5-14-28.3-31.5
				c-17.4-17.1-35.5-32.1-36.4-32.9c0.9,0.2,31.1,7.8,50,14.3c18,6.2,21.3,8.2,21.7,8.4c-0.8-1.2-22.8-31.3-43-57.4
				c-20.6-26.6-31.8-38.1-31.8-38.1s68.9,47.2,81.2,55.6c12.2,8.4,12.2,8.4,12.2,8.4s-17.8-37.1-34.6-63
				c-15.2-23.5-16.6-25.7-16.8-25.9c0.6,0.5,40.7,34,51.8,41.3c11.2,7.3,11.2,7.3,11.2,7.3s-16.4-38.1-26.6-58.4
				c-9.8-19.7-17.4-32.4-17.8-33.2l67.8,64.3l43.4-60.5c-0.4,1.4-16.6,77.4-16.8,78l33.6-27.6l-15.4,72.4l68.6-70l-25.9,108.8
				l65.8-68.9l-33.9,111.3l43.7-59.1l-24.5,66.1L824.8,1038.1z"/>
			<linearGradient id="XMLID_31_" gradientUnits="userSpaceOnUse" x1="669.1314" y1="1107.1129" x2="660.425" y2="953.3008">
				<stop  offset="0" style="stop-color:#FBECEB"/>
				<stop  offset="1" style="stop-color:#E2D9E3"/>
			</linearGradient>
			<path id="XMLID_860_" class="st27" d="M777.9,1087.1H575.6l-18.5-16.8l39.9,7.3c0,0-8.7-15.7-17.8-28.3
				c-9.1-12.6-15.4-18.9-15.4-18.9l47.9,15.4c0,0-15.4-23.8-24.5-38.5c-9.1-14.7-9.1-14.7-9.1-14.7l50.7,28.3l-20.6-51.8l40.6,26.9
				l25.2-36.7l-4.9,71l48.6-53.5l-7,85l45.1-45.8l-6.6,61.2l22.7-10.5L777.9,1087.1z"/>
		</g>
	</g>
</g>
<g id="SMOKE_3">
	<g id="XMLID_878_">
		<linearGradient id="XMLID_32_" gradientUnits="userSpaceOnUse" x1="604.3283" y1="203.4336" x2="604.3283" y2="301.9934">
			<stop  offset="0" style="stop-color:#FBECEB"/>
			<stop  offset="1" style="stop-color:#E2D9E3"/>
		</linearGradient>
		<path id="XMLID_324_" class="st28" d="M604.3,194.9c-75.9,0-137.5,7.8-137.5,17.4c0,9.6,61.6,17.4,137.5,17.4
			c75.9,0,137.5-7.8,137.5-17.4C741.8,202.7,680.3,194.9,604.3,194.9z M604.3,218.2c-56.4,0-102.2-3.9-102.2-8.7
			c0-4.8,45.7-8.7,102.2-8.7c56.4,0,102.2,3.9,102.2,8.7C706.5,214.3,660.8,218.2,604.3,218.2z"/>
		<linearGradient id="XMLID_33_" gradientUnits="userSpaceOnUse" x1="604.3283" y1="159.63" x2="604.3283" y2="258.1898">
			<stop  offset="0" style="stop-color:#FBECEB"/>
			<stop  offset="1" style="stop-color:#E2D9E3"/>
		</linearGradient>
		<path id="XMLID_819_" class="st29" d="M604.3,151.1c-106.5,0-192.9,7.8-192.9,17.4c0,9.6,86.4,17.4,192.9,17.4
			c106.5,0,192.9-7.8,192.9-17.4C797.2,158.9,710.9,151.1,604.3,151.1z M604.3,174.4c-79.2,0-143.3-3.9-143.3-8.7
			c0-4.8,64.2-8.7,143.3-8.7c79.2,0,143.3,3.9,143.3,8.7C747.7,170.5,683.5,174.4,604.3,174.4z"/>
	</g>
</g>
<g id="ORNAMENT_1">
	<g id="XMLID_955_">
		<g id="XMLID_935_">
			<polygon id="XMLID_157_" class="st30" points="450.5,723.3 430.2,733.2 463.3,763.4 473.4,755.8 			"/>
			<polygon id="XMLID_937_" class="st30" points="278.2,816.1 274.6,827.9 298.9,826 299.7,819.2 			"/>
			<polygon id="XMLID_950_" class="st30" points="335.6,942.6 330.3,959.5 365.3,956.9 366.4,947.1 			"/>
		</g>
		<g id="XMLID_956_">
			<polygon id="XMLID_961_" class="st30" points="832.9,784.3 853.2,794.2 820.1,824.3 810,816.7 			"/>
			<polygon id="XMLID_960_" class="st30" points="1005.1,877 1008.8,888.8 984.5,887 983.7,880.1 			"/>
			<polygon id="XMLID_958_" class="st30" points="938.4,973.8 943.7,990.7 908.6,988.1 907.5,978.3 			"/>
		</g>
	</g>
</g>
<g id="ORNAMENT_2">
	<g id="XMLID_2_">
		<g id="XMLID_952_">
			
				<linearGradient id="XMLID_34_" gradientUnits="userSpaceOnUse" x1="870.1929" y1="648.4118" x2="1023.4443" y2="1072.6117" gradientTransform="matrix(0.8695 0.494 -0.494 0.8695 524.8481 -332.8007)">
				<stop  offset="0" style="stop-color:#FBECEB"/>
				<stop  offset="1" style="stop-color:#E2D9E3"/>
			</linearGradient>
			<path id="XMLID_954_" class="st31" d="M988.3,835c0,0-19.7,1.5-57.9,13.3c-38.1,11.8-62.9,25.5-62.9,25.5s39.8-27.4,68.8-46
				s47.4-27.2,47.4-27.2L988.3,835z"/>
			
				<linearGradient id="XMLID_35_" gradientUnits="userSpaceOnUse" x1="971.8885" y1="710.7111" x2="975.5666" y2="958.9783" gradientTransform="matrix(0.8695 0.494 -0.494 0.8695 524.8481 -332.8007)">
				<stop  offset="0.1179" style="stop-color:#24245A"/>
				<stop  offset="1" style="stop-color:#343977"/>
			</linearGradient>
			<circle id="XMLID_953_" class="st32" cx="990.4" cy="817" r="17.8"/>
		</g>
		<g id="XMLID_1_">
			<g id="XMLID_303_">
				
					<linearGradient id="XMLID_36_" gradientUnits="userSpaceOnUse" x1="287.184" y1="681.1241" x2="434.1988" y2="1088.061" gradientTransform="matrix(0.9918 -0.1275 0.1275 0.9918 -91.4816 64.573)">
					<stop  offset="0" style="stop-color:#FBECEB"/>
					<stop  offset="1" style="stop-color:#E2D9E3"/>
				</linearGradient>
				<path id="XMLID_315_" class="st33" d="M236.3,725.7c0,0,49.6,26,89.8,46.2s65.1,40,65.1,40s-39.1-37.9-67.8-64
					c-28.7-26.1-75.6-59.8-75.6-59.8L236.3,725.7z"/>
				
					<linearGradient id="XMLID_37_" gradientUnits="userSpaceOnUse" x1="224.3814" y1="677.4614" x2="264.5274" y2="677.4614" gradientTransform="matrix(0.9918 -0.1275 0.1275 0.9918 -91.4816 64.573)">
					<stop  offset="0.1179" style="stop-color:#24245A"/>
					<stop  offset="1" style="stop-color:#343977"/>
				</linearGradient>
				<circle id="XMLID_313_" class="st34" cx="237.4" cy="705.3" r="20.1"/>
			</g>
			<g id="XMLID_309_">
				
					<linearGradient id="XMLID_38_" gradientUnits="userSpaceOnUse" x1="701.0851" y1="541.1166" x2="822.0066" y2="875.8273" gradientTransform="matrix(0.9987 -5.055980e-002 5.055980e-002 0.9987 -34.268 41.252)">
					<stop  offset="0" style="stop-color:#FBECEB"/>
					<stop  offset="1" style="stop-color:#E2D9E3"/>
				</linearGradient>
				<path id="XMLID_318_" class="st35" d="M785.2,650.6c0,0-12.5,9.4-32.9,33.4c-20.4,24-31,43.6-31,43.6s14.9-35.1,26.2-59.8
					c11.4-24.7,20-38.2,20-38.2L785.2,650.6z"/>
				
					<linearGradient id="XMLID_39_" gradientUnits="userSpaceOnUse" x1="781.327" y1="590.2732" x2="784.2292" y2="786.166" gradientTransform="matrix(0.9987 -5.055980e-002 5.055980e-002 0.9987 -34.268 41.252)">
					<stop  offset="0.1179" style="stop-color:#24245A"/>
					<stop  offset="1" style="stop-color:#343977"/>
				</linearGradient>
				<circle id="XMLID_319_" class="st36" cx="779" cy="637.8" r="14.1"/>
			</g>
			<g id="XMLID_304_">
				<linearGradient id="XMLID_40_" gradientUnits="userSpaceOnUse" x1="246.9784" y1="740.7135" x2="367.8999" y2="1075.4242">
					<stop  offset="0" style="stop-color:#FBECEB"/>
					<stop  offset="1" style="stop-color:#E2D9E3"/>
				</linearGradient>
				<path id="XMLID_316_" class="st37" d="M282.3,1013.2c0,0,17.8-6.7,55.8-11.8c38-5.1,65.1-3.2,65.1-3.2s-45.8-7.8-78.5-12.3
					s-52.3-4.6-52.3-4.6L282.3,1013.2z"/>
				<linearGradient id="XMLID_41_" gradientUnits="userSpaceOnUse" x1="256.0565" y1="998.3434" x2="290.2857" y2="998.3434">
					<stop  offset="0.1179" style="stop-color:#24245A"/>
					<stop  offset="1" style="stop-color:#343977"/>
				</linearGradient>
				<circle id="XMLID_317_" class="st38" cx="273.2" cy="998.3" r="17.1"/>
			</g>
		</g>
	</g>
</g>
<g id="ORNAMENT_3">
	<g id="XMLID_857_">
		<g id="XMLID_312_">
			<g id="XMLID_827_">
				<path id="XMLID_830_" class="st39" d="M406,663.3c-5.3-16.9-32.9-14.9-30.8,7.2C377.5,692.7,412.4,683.4,406,663.3z"/>
				<path id="XMLID_829_" class="st39" d="M434.5,621.1c-3-7.9-14.3-4.1-15.2,5.3C418.5,635.7,439.9,635.1,434.5,621.1z"/>
				<path id="XMLID_828_" class="st39" d="M431.1,689c-3.2-6.3-11.7-5-12.5,0.7c-0.8,5.7,3.7,8.1,8.4,8
					C431.8,697.6,432.3,691.3,431.1,689z"/>
			</g>
			<g id="XMLID_822_">
				<path id="XMLID_826_" class="st39" d="M450.6,673.7c7.3-4.9,2.5-17.7-7.7-13.6C432.7,664.2,442,679.5,450.6,673.7z"/>
				<path id="XMLID_825_" class="st39" d="M394.8,621.4c4.1-3.1-0.1-9.1-5.7-8C383.5,614.5,387.5,627,394.8,621.4z"/>
				<path id="XMLID_824_" class="st39" d="M369.1,635.6c3.1-2.9,1-7.7-2.5-7.2c-3.5,0.5-4.1,3.6-3.2,6.3S367.9,636.6,369.1,635.6z"
					/>
			</g>
		</g>
		<g id="XMLID_843_">
			<g id="XMLID_848_">
				<path id="XMLID_851_" class="st39" d="M906.7,745.2c-3.8-12.1-23.7-10.7-22.1,5.2S911.3,759.7,906.7,745.2z"/>
				<path id="XMLID_850_" class="st39" d="M864.6,742c-2.2-5.7-10.3-2.9-10.9,3.8C853,752.5,868.5,752.1,864.6,742z"/>
				<path id="XMLID_849_" class="st39" d="M922.5,772c-2.3-4.5-8.4-3.6-9,0.5c-0.6,4.1,2.7,5.9,6.1,5.8S923.3,773.7,922.5,772z"/>
			</g>
			<g id="XMLID_844_">
				<path id="XMLID_847_" class="st39" d="M913.8,731.6c5.2-3.5,1.8-12.7-5.5-9.8C901,724.8,907.6,735.8,913.8,731.6z"/>
				<path id="XMLID_846_" class="st39" d="M904.7,695.4c6.1-4.6-0.1-13.4-8.4-11.8C888,685.2,894,703.6,904.7,695.4z"/>
				<path id="XMLID_845_" class="st39" d="M880.1,725.3c2.3-2.1,0.7-5.5-1.8-5.2s-3,2.6-2.3,4.5
					C876.6,726.6,879.3,726.1,880.1,725.3z"/>
			</g>
		</g>
		<g id="XMLID_832_">
			<g id="XMLID_839_">
				<path id="XMLID_842_" class="st39" d="M798,305.6c8.3,7.9,23.3-1.8,15.2-13.7S788.1,296.2,798,305.6z"/>
				<path id="XMLID_841_" class="st39" d="M752.5,283.3c5,4.3,11.3-2.6,8.4-9.3S743.5,275.7,752.5,283.3z"/>
				<path id="XMLID_840_" class="st39" d="M812.6,331c4.5,3.1,9.8-0.9,8.3-5.2s-5.6-4.2-8.8-2.3S811,329.8,812.6,331z"/>
			</g>
			<g id="XMLID_833_">
				<path id="XMLID_838_" class="st39" d="M781.1,323.3c-3.1,6,4.9,13,10.3,6.4C796.9,323.1,784.9,316.1,781.1,323.3z"/>
				<path id="XMLID_837_" class="st39" d="M828.9,303.6c-1.6,3.7,3.4,6.2,6.9,3.3C839.2,304.1,831.8,297.1,828.9,303.6z"/>
				<path id="XMLID_834_" class="st39" d="M782.7,274.9c-1,3.2,2.2,5.6,4.4,4s1.5-4-0.1-5.5C785.4,271.8,783.1,273.7,782.7,274.9z"
					/>
			</g>
		</g>
		<g id="XMLID_858_">
			<g id="XMLID_874_">
				<path id="XMLID_877_" class="st39" d="M385.2,380.1c-8.1,1.7-8.5,14.8,2,14.7C397.7,394.9,394.9,378.1,385.2,380.1z"/>
				<path id="XMLID_876_" class="st39" d="M417.3,362c-4.6,1.3-3.1,7.9,2.1,8.9C424.7,371.8,425.6,359.7,417.3,362z"/>
				<path id="XMLID_875_" class="st39" d="M363.9,378.5c-3.7,1.4-3.5,6.3-0.3,7.1c3.2,0.8,4.8-1.6,5-4.3
					C368.8,378.6,365.3,378,363.9,378.5z"/>
			</g>
			<g id="XMLID_859_">
				<path id="XMLID_872_" class="st39" d="M381.5,362.7c-2.3-4.4-9.9-2.4-8.1,3.6C375.1,372.3,384.3,367.9,381.5,362.7z"/>
				<path id="XMLID_871_" class="st39" d="M373.7,399.6c-1.5-2.5-5.1-0.5-4.8,2.8S376.4,404,373.7,399.6z"/>
				<path id="XMLID_869_" class="st39" d="M410,383.6c-1.5-1.9-4.3-1-4.2,1c0.1,2,1.8,2.5,3.4,2.2
					C410.7,386.5,410.5,384.3,410,383.6z"/>
			</g>
		</g>
	</g>
</g>
<g id="OBJECT_1">
	<g id="XMLID_327_">
		<g id="XMLID_321_">
			<g id="XMLID_320_">
				<path id="XMLID_314_" class="st40" d="M849.2,485.3l4.8-3.8l9.3,13c3.9,5.4,2.8,12.9-2.6,16.9l-7.7,5.8l-3.2-4l5.3-4.5
					c3.9-3.5,4.5-9.3,1.4-13.5L849.2,485.3z"/>
			</g>
			<g id="XMLID_325_">
				<path id="XMLID_326_" class="st40" d="M865.8,474l-4.9,3.7L871,490c4.2,5.1,11.8,6,17,1.9l7.6-6l-3-4.1l-5.7,4
					c-4.3,2.9-10.2,2-13.4-2.1L865.8,474z"/>
			</g>
		</g>
		<g id="XMLID_328_">
			<g id="XMLID_331_">
				<path id="XMLID_332_" class="st40" d="M903.4,522.8l-4.8,3.9l-9.4-12.9c-3.9-5.4-2.8-12.9,2.5-16.9l7.7-5.9l3.2,4l-5.3,4.5
					c-3.9,3.5-4.5,9.4-1.4,13.5L903.4,522.8z"/>
			</g>
			<g id="XMLID_329_">
				<path id="XMLID_330_" class="st40" d="M886.8,534.2l4.9-3.7l-10.2-12.3c-4.2-5.1-11.8-5.9-17-1.8l-7.6,6l3,4.1l5.7-4
					c4.3-2.9,10.2-2,13.5,2L886.8,534.2z"/>
			</g>
		</g>
	</g>
</g>
<g id="OBJECT_2">
	<g id="XMLID_301_">
		<linearGradient id="XMLID_42_" gradientUnits="userSpaceOnUse" x1="995.3277" y1="242.8356" x2="911.1221" y2="784.4825">
			<stop  offset="0.1179" style="stop-color:#EE5A77"/>
			<stop  offset="1" style="stop-color:#801C56"/>
		</linearGradient>
		<polygon id="XMLID_256_" class="st41" points="958.3,233.9 978.7,441.4 1002.7,442.9 1017,234.7 		"/>
		<linearGradient id="XMLID_43_" gradientUnits="userSpaceOnUse" x1="1024.1702" y1="256.1017" x2="943.6405" y2="774.1035">
			<stop  offset="0.1179" style="stop-color:#EE5A77"/>
			<stop  offset="1" style="stop-color:#801C56"/>
		</linearGradient>
		<circle id="XMLID_261_" class="st42" cx="990.2" cy="474.4" r="14.1"/>
		<linearGradient id="XMLID_44_" gradientUnits="userSpaceOnUse" x1="1076.453" y1="264.2297" x2="995.9233" y2="782.2314">
			<stop  offset="0.1179" style="stop-color:#EE5A77"/>
			<stop  offset="1" style="stop-color:#801C56"/>
		</linearGradient>
		<circle id="XMLID_278_" class="st43" cx="1043.2" cy="478.2" r="12"/>
		<linearGradient id="XMLID_45_" gradientUnits="userSpaceOnUse" x1="1093.4575" y1="267.9859" x2="1012.9278" y2="785.9877">
			<stop  offset="0.1179" style="stop-color:#EE5A77"/>
			<stop  offset="1" style="stop-color:#801C56"/>
		</linearGradient>
		<polygon id="XMLID_262_" class="st44" points="1067.3,353.8 1099.9,367.5 1058.2,455 1043.3,449.5 		"/>
	</g>
</g>
<g id="RIGHT_ARM_2">
	<g id="XMLID_801_">
		<g id="XMLID_793_">
			<linearGradient id="XMLID_46_" gradientUnits="userSpaceOnUse" x1="1197.2354" y1="459.866" x2="1266.8772" y2="607.855">
				<stop  offset="0.1436" style="stop-color:#F7AFAA"/>
				<stop  offset="0.9333" style="stop-color:#E58880"/>
			</linearGradient>
			<path id="XMLID_936_" class="st45" d="M1267.4,558.5c0,0-1.6,3.1-4.5,7.1c-4.4,6-11.7,13.8-21,15.6c-3.1,0.6-6.5,0.5-10-0.6
				l-30.3-51.8c0,0-15.7-0.5-34.6-15.7c-15.6-12.6-24-21-25.9-28c-0.4-1.5-0.5-2.8-0.3-4.2c0.8-6.2,4.7-3.7,8.6-0.7
				c0.9,0.7,1.9,1.5,2.8,2.1c4.6,3.4,12.3,8.7,20.8,6.5c8.5-2.2,13.8-16.2,12.7-33.6c-1.5-24.9-13.7-37.7-9.8-41.6
				c0.1-0.1,0.1-0.1,0.2-0.2c4-3.4,13.3,4.7,17.4,15.4c3.1,8.3,5.6,19.2,7.2,23.9c0.5,1.4,0.9,2.3,1.2,2.3c1.5,0,3.4-11.8,1.9-30
				c-1.3-16.7-4.9-31.3-2-34.5c0.2-0.3,0.5-0.5,0.9-0.6c4.4-1.2,11.3,12.3,13.2,29.3c1.9,16.9,3.4,31.7,3.5,35.8
				c0,0.4,0.1,0.7,0.2,0.9c0.8,1.4,4.5-4,6.6-9.6c2.4-6.3,3.9-22.2,3.4-29.7c-0.2-3.7,0.6-6.1,1.8-7c1.2-0.9,2.7-0.4,3.7,1.7
				c1.9,4.1,4.4,11.6,4.4,24.2c0,12.6-4.6,25.6-3.9,26.4c0.7,0.7,5.3-5.9,7.4-16.6c2.2-10.6,3.7-17,5.6-18.2
				c0.6-0.4,1.5,0.1,2.2,1.5c1.6,3,2.9,10,0.9,21.2c-2.9,16.5-6.1,28.1-13.5,41.8c-7.5,13.8-6.3,19.8-4.4,23.4
				C1235.7,518.6,1267.4,558.5,1267.4,558.5z"/>
			<linearGradient id="XMLID_47_" gradientUnits="userSpaceOnUse" x1="1176.5028" y1="543.0182" x2="1265.7428" y2="491.8684">
				<stop  offset="0.1436" style="stop-color:#F7AFAA"/>
				<stop  offset="0.9333" style="stop-color:#E58880"/>
			</linearGradient>
			<path id="XMLID_922_" class="st46" d="M1267.4,558.5c0,0-1.6,3.1-4.5,7.1l-10.3,2.4c0,0-22.5-33.1-27.6-50.5
				c-5.1-17.4,13.1-34.6,21-55.6c5.7-15,5.4-27.5,4.7-33.3c1.6,3,2.9,10,0.9,21.2c-2.9,16.5-6.1,28.1-13.5,41.8
				c-7.5,13.8-6.3,19.8-4.4,23.4C1235.7,518.6,1267.4,558.5,1267.4,558.5z"/>
			<linearGradient id="XMLID_48_" gradientUnits="userSpaceOnUse" x1="1188.5779" y1="456.6525" x2="1233.033" y2="431.1722">
				<stop  offset="0.1436" style="stop-color:#F7AFAA"/>
				<stop  offset="0.9333" style="stop-color:#E58880"/>
			</linearGradient>
			<path id="XMLID_918_" class="st47" d="M1233.2,421c-0.2,9.7-0.8,20.8-3.5,30c-2.7,9.2-9.3,9.7-9.9,7.4c-0.2-0.8-0.3-1.7-0.4-2.5
				c0.8,1.4,4.5-4,6.6-9.6c2.4-6.3,3.9-22.2,3.4-29.7c-0.2-3.7,0.6-6.1,1.8-7C1232.2,411.3,1233.4,414.9,1233.2,421z"/>
			<linearGradient id="XMLID_49_" gradientUnits="userSpaceOnUse" x1="1197.1375" y1="376.7827" x2="1204.6345" y2="439.42">
				<stop  offset="0.1436" style="stop-color:#F7AFAA"/>
				<stop  offset="0.9333" style="stop-color:#E58880"/>
			</linearGradient>
			<path id="XMLID_926_" class="st48" d="M1208.1,453.4c-1.1,6.7-4.9,7.8-6.9,1.6c-0.2-0.6-0.4-1.4-0.6-2.3c0.5,1.4,0.9,2.3,1.2,2.3
				c1.5,0,3.4-11.8,1.9-30c-1.3-16.7-4.9-31.3-2-34.5c1.4,2.9,4.6,11.1,6,27.9C1209.5,440.4,1209.2,446.7,1208.1,453.4z"/>
			<linearGradient id="XMLID_50_" gradientUnits="userSpaceOnUse" x1="1157.3728" y1="430.3434" x2="1210.5782" y2="559.0038">
				<stop  offset="0.1436" style="stop-color:#F7AFAA"/>
				<stop  offset="0.9333" style="stop-color:#E58880"/>
			</linearGradient>
			<path id="XMLID_930_" class="st49" d="M1188.5,481.8c-3.9,11.6-16,11.9-23,10.4c-5.9-1.2-13.9-9.5-16.3-12.1
				c0.9,0.7,1.9,1.5,2.8,2.1c4.6,3.4,12.3,8.7,20.8,6.5c8.5-2.2,13.8-16.2,12.7-33.6c-1.5-24.9-13.7-37.7-9.8-41.6
				c0.1-0.1,0.1-0.1,0.2-0.2c3.1,3.4,9.5,11.7,12.1,23.6C1191.4,453,1192.4,470.2,1188.5,481.8z"/>
			<linearGradient id="XMLID_51_" gradientUnits="userSpaceOnUse" x1="1182.4167" y1="457.7254" x2="1194.1771" y2="555.9816">
				<stop  offset="0.1436" style="stop-color:#F7AFAA"/>
				<stop  offset="0.9333" style="stop-color:#E58880"/>
			</linearGradient>
			<path id="XMLID_931_" class="st50" d="M1241.9,581.1c-3.1,0.6-6.5,0.5-10-0.6l-30.3-51.8c0,0-15.7-0.5-34.6-15.7
				c-15.6-12.6-24-21-25.9-28c3.5,5.4,10.1,13.1,21.8,21c21.5,14.5,39.4,15.5,39.4,15.5L1241.9,581.1z"/>
			<g id="XMLID_791_">
				<linearGradient id="XMLID_52_" gradientUnits="userSpaceOnUse" x1="1236.4227" y1="544.7022" x2="1260.0024" y2="586.0574">
					<stop  offset="0.1179" style="stop-color:#EE5A77"/>
					<stop  offset="1" style="stop-color:#801C56"/>
				</linearGradient>
				<path id="XMLID_299_" class="st51" d="M1281.5,565.3c0,0-29.7,3.1-48.9,31.4l-10.7-22.3l-3.8-8c0,0,2.4-13.5,14-20.8
					c11.6-7.3,26.6-5.6,26.6-5.6l16.1,17.8L1281.5,565.3z"/>
				<linearGradient id="XMLID_53_" gradientUnits="userSpaceOnUse" x1="1236.9967" y1="538.5264" x2="1258.0371" y2="583.1465">
					<stop  offset="0.1179" style="stop-color:#EE5A77"/>
					<stop  offset="1" style="stop-color:#801C56"/>
				</linearGradient>
				<path id="XMLID_296_" class="st52" d="M1281.5,565.3c0,0-29.7,3.1-48.9,31.4l-10.7-22.3c5.3-4.4,11.6-8.7,18.5-11.4
					c13.2-5,26.7-5.5,34.3-5.2L1281.5,565.3z"/>
			</g>
		</g>
		<g id="XMLID_284_">
			<linearGradient id="XMLID_54_" gradientUnits="userSpaceOnUse" x1="1264.4686" y1="566.3275" x2="1368.9448" y2="758.5926">
				<stop  offset="0.1385" style="stop-color:#F7B142"/>
				<stop  offset="1" style="stop-color:#EF794A"/>
			</linearGradient>
			<path id="XMLID_297_" class="st53" d="M1400.3,718.6c-2,16-13.5,26-28.8,32.2c-6.9,2.7-14.5,4.7-22.5,6
				c-25.6,4.4-48.4-22.7-60.9-38.7c-19.3-24.6-28.5-46.9-43.5-81.7s-16.9-41.6-16.9-41.6s1.2-4.3,9.8-11.9c2.2-2,4.9-4.1,8.1-6.5
				c5.7-4.1,11.6-7.2,16.9-9.5c9.7-4.1,17.4-5.5,17.4-5.5s44.5,46,74,77.4c25,26.6,43,48.7,46.2,69
				C1400.6,711.4,1400.7,715,1400.3,718.6z"/>
			<linearGradient id="XMLID_55_" gradientUnits="userSpaceOnUse" x1="1301.5787" y1="517.2363" x2="1298.6766" y2="739.7318">
				<stop  offset="0.1385" style="stop-color:#F7B142"/>
				<stop  offset="1" style="stop-color:#EF794A"/>
			</linearGradient>
			<path id="XMLID_294_" class="st54" d="M1371.5,750.8c-6.9,2.7-14.5,4.7-22.5,6c-25.6,4.4-48.4-22.7-60.9-38.7
				c-19.3-24.6-28.5-46.9-43.5-81.7s-16.9-41.6-16.9-41.6s1.2-4.3,9.8-11.9c5.4,19.4,25.1,81,66.6,119.8
				C1335.5,731.9,1355.2,745.1,1371.5,750.8z"/>
			<linearGradient id="XMLID_56_" gradientUnits="userSpaceOnUse" x1="1370.9969" y1="708.7086" x2="1295.5419" y2="567.2304">
				<stop  offset="0.1385" style="stop-color:#F7B142"/>
				<stop  offset="1" style="stop-color:#FAD58D"/>
			</linearGradient>
			<path id="XMLID_292_" class="st55" d="M1400,707.8c-7.7-13.6-22-30.4-54.4-63.2c-35.9-36.3-70.3-66.5-83.2-77.7
				c9.7-4.1,17.4-5.5,17.4-5.5s44.5,46,74,77.4C1378.8,665.4,1396.9,687.5,1400,707.8z"/>
		</g>
	</g>
</g>
<g id="RIGHT_ARM_1">
	<g id="XMLID_282_">
		<linearGradient id="XMLID_57_" gradientUnits="userSpaceOnUse" x1="1385.0908" y1="1160.1661" x2="1199.621" y2="592.8467">
			<stop  offset="0.1385" style="stop-color:#F7B142"/>
			<stop  offset="1" style="stop-color:#EF794A"/>
		</linearGradient>
		<path id="XMLID_285_" class="st56" d="M1392.1,739.4c-19.4,26.6-70.1,56.5-115,75.7c-38.9,16.6-144.6,46.2-166-1.3
			c-1.2-2.7-2.3-5.3-3.4-7.8c-17.5-41.6-18.9-70.8,13.9-95.2c19.5-14.5,49.6-16.4,100-19.3c52.4-3,126.5-12,151.2-4.7
			c15.5,4.5,26.7,13.6,28.3,26.3C1401.9,720.6,1399.3,729.4,1392.1,739.4z"/>
		
			<linearGradient id="XMLID_58_" gradientUnits="userSpaceOnUse" x1="1155.9637" y1="696.2545" x2="1316.4319" y2="699.1286" gradientTransform="matrix(0.9996 2.773766e-002 -2.773766e-002 0.9996 20.2944 -31.1655)">
			<stop  offset="0.1385" style="stop-color:#F7B142"/>
			<stop  offset="1" style="stop-color:#F28948"/>
		</linearGradient>
		<path id="XMLID_854_" class="st57" d="M1183.6,698c-20.9,3.2-5.7,18.7,19.8,17.3c36.3-1.9,172.9-22.1,149.1-25.7
			C1328.6,686.1,1223.7,691.9,1183.6,698z"/>
		<linearGradient id="XMLID_59_" gradientUnits="userSpaceOnUse" x1="1126.1625" y1="626.6199" x2="1269.6898" y2="780.0079">
			<stop  offset="0.1385" style="stop-color:#F7B142"/>
			<stop  offset="1" style="stop-color:#EF794A"/>
		</linearGradient>
		<path id="XMLID_280_" class="st58" d="M1392.1,739.4c-19.4,26.6-92.7,71.7-128.1,83.7c-60.2,20.3-131.5,38.2-152.9-9.3
			c-1.2-2.7-11.4-24.4-12.5-27c27.9,0.8,123.7,9.3,188.6-14.5c65.4-23.9,99.4-48.4,113.8-59.3
			C1401.9,720.6,1399.3,729.4,1392.1,739.4z"/>
	</g>
</g>
<g id="BODY">
	<g id="XMLID_84_">
		<linearGradient id="XMLID_60_" gradientUnits="userSpaceOnUse" x1="1161.0135" y1="1268.9741" x2="963.2835" y2="664.1528">
			<stop  offset="0.1385" style="stop-color:#F7B142"/>
			<stop  offset="1" style="stop-color:#EF794A"/>
		</linearGradient>
		<path id="XMLID_796_" class="st59" d="M1304.6,1171.3c0,0-34.8,58.8-142.9,72.6c-53.7,6.8-111.4,6.6-145.3-0.5
			c-53.2-11.2-81.3-31.7-81.3-31.7s30.8-92.8,36.2-141.9c5.4-49.1,2.7-62.8,2.7-62.8s-42.7-50-53-70
			c-11.9-23.2-26.8-68.3-15.5-107.8c7.4-25.8,3.6-40.2,64-62.7c3-1.1,8.6-2.7,15.3-4.6c16.9-4.8,40.9-11.3,47.9-14
			c71.5-26.8,69.8-39.2,96-47c17.7-5.3,44.4,14.3,69.3,63.2c12.1,23.7,23.8,54.3,33.9,92.2c3.9,14.8,6.8,41,8.9,70.3
			c4.8,67.1,5.5,150.6,5.5,150.6L1304.6,1171.3z"/>
		<linearGradient id="XMLID_61_" gradientUnits="userSpaceOnUse" x1="1184.9611" y1="1173.5219" x2="1242.036" y2="1069.0457">
			<stop  offset="0.1385" style="stop-color:#F7B142"/>
			<stop  offset="1" style="stop-color:#FAD58D"/>
		</linearGradient>
		<path id="XMLID_853_" class="st60" d="M1246.1,1085.7c0,0-14,14-59.5,31.9c-45.5,17.9-94.8,16-87.1,22.7c7.7,6.8,90,0,129.6,5.3
			s66.7,17.4,66.7,17.4S1253.8,1095.9,1246.1,1085.7z"/>
		<linearGradient id="XMLID_62_" gradientUnits="userSpaceOnUse" x1="1136.3152" y1="814.8173" x2="1153.7278" y2="1156.2996">
			<stop  offset="0.1385" style="stop-color:#F7B142"/>
			<stop  offset="1" style="stop-color:#EF794A"/>
		</linearGradient>
		<path id="XMLID_794_" class="st61" d="M1246.5,1077c0,0-18.1,21.8-74.7,37.7s-119,10.9-119,10.9s85.6-46.4,130.6-109.6
			c24.5-34.4,44.5-67,57.6-89.6C1245.8,993.5,1246.5,1077,1246.5,1077z"/>
		<linearGradient id="XMLID_63_" gradientUnits="userSpaceOnUse" x1="1022.5591" y1="1279.4426" x2="958.7118" y2="983.423">
			<stop  offset="0.1385" style="stop-color:#F7B142"/>
			<stop  offset="1" style="stop-color:#EF794A"/>
		</linearGradient>
		<path id="XMLID_864_" class="st62" d="M1016.4,1243.4c-53.2-11.2-81.3-31.7-81.3-31.7s4.9-14.9,11.2-35.8
			c9.4-31.4,21.8-76.6,25-106.1c5.4-49.2,2.7-62.8,2.7-62.8s-42.7-50-53-70c-1-1.9-1.9-3.9-2.9-6c-11.2-24.4-23-65.4-12.5-101.8
			c19.4-4.7,83.5-28.7,90.4,23c15.5,116.1,38.5,145,38.5,145s-17,66.9-23.8,150.1C1007.7,1184.1,1011.4,1217.6,1016.4,1243.4z"/>
		<linearGradient id="XMLID_64_" gradientUnits="userSpaceOnUse" x1="1013.699" y1="598.8623" x2="1070.7749" y2="731.076">
			<stop  offset="0.1385" style="stop-color:#F7B142"/>
			<stop  offset="1" style="stop-color:#EF794A"/>
		</linearGradient>
		<path id="XMLID_788_" class="st63" d="M1193.3,810.5c-20.3,46.4-110.9,105.7-168.1,54.3c-38.2-34.3-37.6-86.1-33.4-105.2
			c16.9-4.8,34-9.2,41-11.8c71.5-26.8,69.8-39.2,96-47c17.7-5.3,44.4,14.3,69.3,63.2C1200.2,780,1199.5,796.4,1193.3,810.5z"/>
		<linearGradient id="XMLID_65_" gradientUnits="userSpaceOnUse" x1="907.7623" y1="1046.9226" x2="975.165" y2="1048.1299">
			<stop  offset="0.1385" style="stop-color:#F7B142"/>
			<stop  offset="1" style="stop-color:#F49449"/>
		</linearGradient>
		<path id="XMLID_862_" class="st64" d="M991.9,1000.3c0,0-5.1,8.9-10.4,48.6c-5.3,39.7-12.1,75.5-20.8,99.6
			c-5.1,14.1-10.6,22.6-14.4,27.2c9.4-31.4,21.8-76.6,25-106.1c5.4-49.2,2.7-62.8,2.7-62.8s-42.7-50-53-70c-1-1.9-1.9-3.9-2.9-6
			c-0.1-2-0.3-4.2-0.6-6.4c-1.8-12,13.8-5.4,34.1,26.8S991.9,1000.3,991.9,1000.3z"/>
	</g>
</g>
<g id="LEFT_ARM_1">
	<g id="XMLID_880_">
		
			<linearGradient id="XMLID_66_" gradientUnits="userSpaceOnUse" x1="941.7305" y1="874.5364" x2="857.0261" y2="1028.688" gradientTransform="matrix(0.9749 0.2226 -0.2226 0.9749 218.9294 -168.205)">
			<stop  offset="9.677419e-002" style="stop-color:#FDF9CB"/>
			<stop  offset="1" style="stop-color:#F0BF7C"/>
		</linearGradient>
		<path id="XMLID_881_" class="st65" d="M919.3,921.8c-7.2,6.6-69.3,53.3-69.7,54c-0.4,0.7,70.4-39,77.4-43.9
			C947.4,917.7,933.3,909.2,919.3,921.8z"/>
		
			<linearGradient id="XMLID_67_" gradientUnits="userSpaceOnUse" x1="976.8803" y1="956.3704" x2="918.7154" y2="1062.2233" gradientTransform="matrix(0.8295 0.5585 -0.5585 0.8295 660.7145 -330.6684)">
			<stop  offset="9.677419e-002" style="stop-color:#FDF9CB"/>
			<stop  offset="1" style="stop-color:#F0BF7C"/>
		</linearGradient>
		<path id="XMLID_891_" class="st66" d="M915.2,1020.4c-6.3,2.4-57.5,17-58,17.4c-0.4,0.3,54.7-7.6,60.4-9
			C934.2,1024.7,927.2,1015.7,915.2,1020.4z"/>
		
			<linearGradient id="XMLID_68_" gradientUnits="userSpaceOnUse" x1="851.1508" y1="815.8764" x2="779.0539" y2="947.0838" gradientTransform="matrix(0.9959 9.092122e-002 -9.092122e-002 0.9959 79.6441 -69.2682)">
			<stop  offset="9.677419e-002" style="stop-color:#FDF9CB"/>
			<stop  offset="1" style="stop-color:#F0BF7C"/>
		</linearGradient>
		<path id="XMLID_882_" class="st67" d="M828.6,847.8c-7.7,9.1-43.1,52.1-43.5,53s46.8-35,54.5-42.1
			C861.8,838.2,843.4,830.3,828.6,847.8z"/>
		
			<linearGradient id="XMLID_69_" gradientUnits="userSpaceOnUse" x1="537.8382" y1="680.68" x2="482.1835" y2="781.9647" gradientTransform="matrix(-2.720705e-002 -0.9996 0.9996 -2.720705e-002 -271.0848 1358.6918)">
			<stop  offset="9.677419e-002" style="stop-color:#FDF9CB"/>
			<stop  offset="1" style="stop-color:#F0BF7C"/>
		</linearGradient>
		<path id="XMLID_887_" class="st68" d="M417.8,818.9c7.7,5,43.9,28.3,44.6,28.5c0.7,0.2-31.1-32.7-37.2-37.9
			C407.4,794.2,403,809.1,417.8,818.9z"/>
		
			<linearGradient id="XMLID_70_" gradientUnits="userSpaceOnUse" x1="508.1336" y1="595.5309" x2="417.1892" y2="761.0383" gradientTransform="matrix(-0.2744 -0.9616 0.9616 -0.2744 -121.8268 1539.6805)">
			<stop  offset="9.677419e-002" style="stop-color:#FDF9CB"/>
			<stop  offset="1" style="stop-color:#F0BF7C"/>
		</linearGradient>
		<path id="XMLID_888_" class="st69" d="M354.5,904.1c14.2,4.9,80.9,27,82.1,27.1c1.2,0.1-62.5-39.1-74.3-45
			C328.2,869.3,327.2,894.7,354.5,904.1z"/>
		
			<linearGradient id="XMLID_71_" gradientUnits="userSpaceOnUse" x1="407.0317" y1="578.0056" x2="338.8058" y2="702.1683" gradientTransform="matrix(-0.6068 -0.7949 0.7949 -0.6068 136.2208 1731.1256)">
			<stop  offset="9.677419e-002" style="stop-color:#FDF9CB"/>
			<stop  offset="1" style="stop-color:#F0BF7C"/>
		</linearGradient>
		<path id="XMLID_895_" class="st70" d="M383.3,1056.6c11.2-0.5,63.9-3.3,64.8-3.6c0.8-0.3-54.4-10.2-64.2-11
			C355.4,1039.5,361.6,1057.5,383.3,1056.6z"/>
		
			<linearGradient id="XMLID_72_" gradientUnits="userSpaceOnUse" x1="808.0488" y1="681.5403" x2="684.2729" y2="906.7971" gradientTransform="matrix(0.9422 -0.3351 0.3351 0.9422 -224.6533 310.689)">
			<stop  offset="9.677419e-002" style="stop-color:#FDF9CB"/>
			<stop  offset="1" style="stop-color:#F0BF7C"/>
		</linearGradient>
		<path id="XMLID_883_" class="st71" d="M748.4,742.5c-5.4,19.7-29.7,112.2-29.6,113.8s43.5-89.2,50.4-105.7
			C789.1,702.7,758.8,704.5,748.4,742.5z"/>
		
			<linearGradient id="XMLID_73_" gradientUnits="userSpaceOnUse" x1="677.7852" y1="531.2257" x2="560.8311" y2="744.0677" gradientTransform="matrix(0.2779 -0.9606 0.9606 0.2779 -236.7215 1171.8241)">
			<stop  offset="9.677419e-002" style="stop-color:#FDF9CB"/>
			<stop  offset="1" style="stop-color:#F0BF7C"/>
		</linearGradient>
		<path id="XMLID_884_" class="st72" d="M498.7,699.5c7.7,9.5,67.6,103,68.4,103.5c0.8,0.5-49.7-103.4-55.3-112.5
			C495.5,664.1,483.9,681.2,498.7,699.5z"/>
	</g>
	<g id="XMLID_287_">
		<linearGradient id="XMLID_74_" gradientUnits="userSpaceOnUse" x1="582.4724" y1="1038.8386" x2="1067.1257" y2="789.2567">
			<stop  offset="0.1385" style="stop-color:#F7B142"/>
			<stop  offset="1" style="stop-color:#EF794A"/>
		</linearGradient>
		<path id="XMLID_290_" class="st73" d="M997.1,856.3c0,1.2-0.1,2.4-0.2,3.7c-2.5,37.4-31.3,70.5-112.1,87.6
			c-88.1,18.7-129,19-144.2-9.9c-1.1-2-2-4.2-2.8-6.5c-2.1-5.9-0.5-12.6,3.8-19.8c26.5-44.1,168.5-118,188.9-127.1
			c23.7-10.6,55.4,4.2,64.6,51.1C996.6,842.4,997.3,849.4,997.1,856.3z"/>
		<linearGradient id="XMLID_75_" gradientUnits="userSpaceOnUse" x1="760.9253" y1="766.5751" x2="855.9696" y2="881.9343">
			<stop  offset="0.1385" style="stop-color:#F7B142"/>
			<stop  offset="1" style="stop-color:#EF794A"/>
		</linearGradient>
		<path id="XMLID_276_" class="st74" d="M997.1,856.3c0,1.2-0.1,2.4-0.2,3.7c-2.5,37.4-31.3,70.5-112.1,87.6
			c-88.1,18.7-129,19-144.2-9.9c-1.1-2-2-4.2-2.8-6.5c-2.1-5.9-0.5-12.6,3.8-19.8c31.1,14.4,77.4,18.8,127.8,3.6
			C946.6,891.7,986.5,864.3,997.1,856.3z"/>
		
			<linearGradient id="XMLID_76_" gradientUnits="userSpaceOnUse" x1="804.6451" y1="808.8851" x2="952.1407" y2="811.5269" gradientTransform="matrix(-0.94 0.3412 -0.3412 -0.94 2000.1583 1276.704)">
			<stop  offset="0.1385" style="stop-color:#F7B142"/>
			<stop  offset="1" style="stop-color:#F49449"/>
		</linearGradient>
		<path id="XMLID_855_" class="st75" d="M942.2,800.6c16.6-9.7,6-21.7-15-12.1c-30,13.7-145.8,80.3-124.6,75.4
			C824,858.9,910.5,819.1,942.2,800.6z"/>
	</g>
</g>
<g id="LEFT_ARM_2">
	<g id="XMLID_798_">
		<g id="XMLID_795_">
			<g id="XMLID_917_">
				
					<linearGradient id="XMLID_77_" gradientUnits="userSpaceOnUse" x1="871.2895" y1="472.89" x2="940.9314" y2="620.8791" gradientTransform="matrix(-0.4784 0.8781 0.8781 0.4784 623.3896 -359.9848)">
					<stop  offset="0.1436" style="stop-color:#F7AFAA"/>
					<stop  offset="0.9333" style="stop-color:#E58880"/>
				</linearGradient>
				<path id="XMLID_912_" class="st76" d="M674.8,740.1c0,0,3.5,0.1,8.4-0.5c7.3-1,17.7-3.7,23.7-11c2-2.5,3.5-5.5,4.2-9.1
					L680.2,668c0,0,7.1-14,2.8-37.9c-3.6-19.7-7-31.1-12.2-36.1c-1.1-1.1-2.2-1.8-3.5-2.3c-5.8-2.3-5.5,2.4-4.7,7.2
					c0.2,1.2,0.4,2.4,0.5,3.5c0.8,5.7,1.7,15-4.2,21.4c-6,6.4-20.8,4.3-35.6-4.9c-21.2-13.2-26.6-30.1-31.8-28.5
					c-0.1,0-0.2,0-0.2,0.1c-4.9,1.8-2.3,14,5.2,22.6c5.8,6.7,14.2,14.1,17.5,17.8c1,1.1,1.6,1.9,1.4,2.2c-0.7,1.3-12-2.7-27.2-12.6
					c-14-9.2-25.2-19.3-29.3-18.3c-0.4,0.1-0.7,0.2-0.9,0.5c-3.2,3.2,5.4,15.8,19.4,25.6c13.9,9.8,26.2,18.1,29.8,20.2
					c0.3,0.2,0.6,0.4,0.7,0.5c0.8,1.4-5.6,2-11.6,1.2c-6.7-0.9-21.4-7.2-27.7-11.3c-3.1-2-5.6-2.3-7-1.7c-1.4,0.6-1.7,2.2-0.3,4.1
					c2.7,3.7,8.1,9.4,19.2,15.4c11,6,24.7,8.2,25,9.2c0.3,1-7.7,1.8-18.1-1.4c-10.4-3.2-16.7-4.9-18.7-3.8c-0.6,0.4-0.6,1.3,0.2,2.6
					c1.8,2.9,7.4,7.4,18.2,11c15.8,5.3,27.5,8.1,43.2,8.1c15.7,0,20.4,4,22.7,7.4C654.9,693.2,674.8,740.1,674.8,740.1z"/>
				
					<linearGradient id="XMLID_78_" gradientUnits="userSpaceOnUse" x1="850.5569" y1="556.0422" x2="939.797" y2="504.8924" gradientTransform="matrix(-0.4784 0.8781 0.8781 0.4784 623.3896 -359.9848)">
					<stop  offset="0.1436" style="stop-color:#F7AFAA"/>
					<stop  offset="0.9333" style="stop-color:#E58880"/>
				</linearGradient>
				<path id="XMLID_907_" class="st77" d="M674.8,740.1c0,0,3.5,0.1,8.4-0.5l7-7.9c0,0-18.3-35.6-31.2-48.4
					c-12.9-12.8-36.6-5.1-58.9-8.1c-15.9-2.2-26.7-8.4-31.5-11.8c1.8,2.9,7.4,7.4,18.2,11c15.8,5.3,27.5,8.1,43.2,8.1
					c15.7,0,20.4,4,22.7,7.4C654.9,693.2,674.8,740.1,674.8,740.1z"/>
				
					<linearGradient id="XMLID_79_" gradientUnits="userSpaceOnUse" x1="862.6321" y1="469.6765" x2="907.0871" y2="444.1962" gradientTransform="matrix(-0.4784 0.8781 0.8781 0.4784 623.3896 -359.9848)">
					<stop  offset="0.1436" style="stop-color:#F7AFAA"/>
					<stop  offset="0.9333" style="stop-color:#E58880"/>
				</linearGradient>
				<path id="XMLID_906_" class="st78" d="M570.5,644.4c8.6,4.4,18.7,9.2,28,11.3c9.4,2.1,13-3.5,11.2-5.2c-0.6-0.6-1.3-1.1-2.1-1.5
					c0.8,1.4-5.6,2-11.6,1.2c-6.7-0.9-21.4-7.2-27.7-11.3c-3.1-2-5.6-2.3-7-1.7C562.5,638.8,565,641.6,570.5,644.4z"/>
				
					<linearGradient id="XMLID_80_" gradientUnits="userSpaceOnUse" x1="871.1915" y1="389.8066" x2="878.6887" y2="452.444" gradientTransform="matrix(-0.4784 0.8781 0.8781 0.4784 623.3896 -359.9848)">
					<stop  offset="0.1436" style="stop-color:#F7AFAA"/>
					<stop  offset="0.9333" style="stop-color:#E58880"/>
				</linearGradient>
				<path id="XMLID_899_" class="st79" d="M610.9,637.8c6.4,2.3,9.2-0.6,4.7-5.3c-0.5-0.5-1.1-1.1-1.7-1.7c1,1.1,1.6,1.9,1.4,2.2
					c-0.7,1.3-12-2.7-27.2-12.6c-14-9.2-25.2-19.3-29.3-18.3c1.9,2.6,7.5,9.4,21.6,18.6C598.8,632.8,604.5,635.5,610.9,637.8z"/>
				
					<linearGradient id="XMLID_81_" gradientUnits="userSpaceOnUse" x1="831.4269" y1="443.3673" x2="884.6324" y2="572.0278" gradientTransform="matrix(-0.4784 0.8781 0.8781 0.4784 623.3896 -359.9848)">
					<stop  offset="0.1436" style="stop-color:#F7AFAA"/>
					<stop  offset="0.9333" style="stop-color:#E58880"/>
				</linearGradient>
				<path id="XMLID_257_" class="st80" d="M645.3,634.2c12,2.2,18-8.3,20.1-15.2c1.8-5.8-1.7-16.8-2.8-20c0.2,1.2,0.4,2.4,0.5,3.5
					c0.8,5.7,1.7,15-4.2,21.4c-6,6.4-20.8,4.3-35.6-4.9c-21.2-13.2-26.6-30.1-31.8-28.5c-0.1,0-0.2,0-0.2,0.1
					c1.5,4.4,5.7,14,15,21.9C618.6,623,633.2,632,645.3,634.2z"/>
				
					<linearGradient id="XMLID_82_" gradientUnits="userSpaceOnUse" x1="856.4709" y1="470.7495" x2="868.2313" y2="569.0056" gradientTransform="matrix(-0.4784 0.8781 0.8781 0.4784 623.3896 -359.9848)">
					<stop  offset="0.1436" style="stop-color:#F7AFAA"/>
					<stop  offset="0.9333" style="stop-color:#E58880"/>
				</linearGradient>
				<path id="XMLID_254_" class="st81" d="M706.9,728.6c2-2.5,3.5-5.5,4.2-9.1L680.2,668c0,0,7.1-14,2.8-37.9
					c-3.6-19.7-7-31.1-12.2-36.1c3,5.7,6.6,15.1,8,29.2c2.4,25.9-5.3,42-5.3,42L706.9,728.6z"/>
			</g>
			<g id="XMLID_792_">
				<linearGradient id="XMLID_83_" gradientUnits="userSpaceOnUse" x1="674.7515" y1="695.961" x2="713.9301" y2="764.8862">
					<stop  offset="0.1179" style="stop-color:#EE5A77"/>
					<stop  offset="1" style="stop-color:#801C56"/>
				</linearGradient>
				<path id="XMLID_293_" class="st82" d="M730.5,728.5c0,0-29.4-4.7-59.9,25.8l-10.5-26.5l-2.9-7.2c0,0,1.1-14.1,19.2-21.4
					c18.1-7.3,30.1-3.6,30.1-3.6l13.9,19.1L730.5,728.5z"/>
				<linearGradient id="XMLID_85_" gradientUnits="userSpaceOnUse" x1="681.5406" y1="690.4453" x2="698.2277" y2="736.1537">
					<stop  offset="0.1179" style="stop-color:#EE5A77"/>
					<stop  offset="1" style="stop-color:#801C56"/>
				</linearGradient>
				<path id="XMLID_289_" class="st83" d="M730.5,728.5c0,0-29.4-4.7-59.9,25.8l-10.5-26.5c6-4,19.3-11.3,38.1-13.4
					c8.2-0.9,15.7-0.6,22.2,0.2L730.5,728.5z"/>
			</g>
		</g>
		<g id="XMLID_782_">
			<linearGradient id="XMLID_86_" gradientUnits="userSpaceOnUse" x1="618.2537" y1="637.0413" x2="943.2906" y2="1147.8136">
				<stop  offset="0.1385" style="stop-color:#F7B142"/>
				<stop  offset="1" style="stop-color:#EF794A"/>
			</linearGradient>
			<path id="XMLID_291_" class="st84" d="M825.9,944c-3.1,4.1-6.5,7.3-10.1,9.8c-9.7,6.7-21,8.5-31.5,7.9c-14-0.8-26.4-5.8-31.2-8.5
				c-9.7-5.6-14.7-10.4-29.3-48.1c-14.5-37.7-54.3-148.3-54.3-148.3s0-8.4,10.8-19c2.7-2.6,6.1-5.4,10.2-8.2
				c12.3-8.2,23-9.7,29.9-9.5c4.9,0.1,7.8,1.2,7.8,1.2s16.2,17.3,43.4,53.2s46.6,57.4,59.5,94.8C833.9,877,848.1,914.5,825.9,944z"
				/>
			<linearGradient id="XMLID_87_" gradientUnits="userSpaceOnUse" x1="795.7429" y1="851.6943" x2="729.9616" y2="663.0567">
				<stop  offset="0.1385" style="stop-color:#F38F49"/>
				<stop  offset="1" style="stop-color:#FAD58D"/>
			</linearGradient>
			<path id="XMLID_283_" class="st85" d="M825.9,944c-3.1,4.1-6.5,7.3-10.1,9.8c1.2-7.9,1.8-31.9-16.7-89.6
				c-18.1-56.6-59.5-117.7-78.6-144.1c4.9,0.1,7.8,1.2,7.8,1.2s16.2,17.3,43.4,53.2s46.6,57.4,59.5,94.8
				C833.9,877,848.1,914.5,825.9,944z"/>
			<linearGradient id="XMLID_88_" gradientUnits="userSpaceOnUse" x1="684.8738" y1="693.4827" x2="750.6552" y2="952.7384">
				<stop  offset="0.1385" style="stop-color:#F7B142"/>
				<stop  offset="1" style="stop-color:#EF794A"/>
			</linearGradient>
			<path id="XMLID_286_" class="st86" d="M784.3,961.7c-14-0.8-26.4-5.8-31.2-8.5c-9.7-5.6-14.7-10.4-29.3-48.1
				c-14.5-37.7-54.3-148.3-54.3-148.3s0-8.4,10.8-19c11.4,43,46,162.7,75.7,196.6C766.2,945.9,775.4,956.2,784.3,961.7z"/>
		</g>
	</g>
</g>
<g id="HEAD">
	<g id="XMLID_3_">
		<g id="XMLID_803_">
			<g id="XMLID_255_">
				<linearGradient id="XMLID_89_" gradientUnits="userSpaceOnUse" x1="946.2368" y1="663.8163" x2="1078.2815" y2="663.8163">
					<stop  offset="0.1436" style="stop-color:#F7AFAA"/>
					<stop  offset="0.9333" style="stop-color:#E58880"/>
				</linearGradient>
				<path id="XMLID_812_" class="st87" d="M1058.2,740.3c-10.9,5.9-31.2,4.3-52.7-9.4c-14.3-9.2-29.2-23.7-42.3-44.9
					c-4.2-6.8-7.5-13.2-10-19.3c-9.5-22.6-8.3-40.1-1.8-52.7c5.4-10.5,14.4-17.7,24.1-21.6c59.2-24.3,85,9.1,97.1,45.5
					C1084.7,674.3,1076.4,730.5,1058.2,740.3z"/>
				<linearGradient id="XMLID_90_" gradientUnits="userSpaceOnUse" x1="987.3068" y1="578.7874" x2="1015.1326" y2="659.2294">
					<stop  offset="0.1436" style="stop-color:#F7AFAA"/>
					<stop  offset="0.9333" style="stop-color:#E58880"/>
				</linearGradient>
				<path id="XMLID_810_" class="st88" d="M1058.2,740.3c-10.9,5.9-31.2,4.3-52.7-9.4c-0.9-7.9-2.9-16.7-6.9-26.5
					c-6.5-16-21.5-48.6-21.5-48.6s-13.1,7.5-23.9,10.8c-9.5-22.6-8.3-40.1-1.8-52.7c5.4-10.5,14.4-17.7,24.1-21.6
					c59.2-24.3,85,9.1,97.1,45.5C1084.7,674.3,1076.4,730.5,1058.2,740.3z"/>
			</g>
			<g id="XMLID_785_">
				
					<linearGradient id="XMLID_91_" gradientUnits="userSpaceOnUse" x1="982.6935" y1="634.7261" x2="983.8986" y2="714.2592" gradientTransform="matrix(1.06 0.1191 -0.1219 1.0846 24.7116 -167.9214)">
					<stop  offset="0.1436" style="stop-color:#F7AFAA"/>
					<stop  offset="0.9333" style="stop-color:#E58880"/>
				</linearGradient>
				<path id="XMLID_252_" class="st89" d="M974.5,654.9c0,0-5.6-13,5.9-16.6c11.5-3.6,18.6,9.3,20.1,27c2,23.8-11.5,17.7-11.5,17.7
					L974.5,654.9z"/>
				
					<linearGradient id="XMLID_92_" gradientUnits="userSpaceOnUse" x1="977.1956" y1="623.2252" x2="982.3674" y2="647.7908" gradientTransform="matrix(1.06 0.1191 -0.1219 1.0846 24.7116 -167.9214)">
					<stop  offset="0.1436" style="stop-color:#F7AFAA"/>
					<stop  offset="0.9333" style="stop-color:#E58880"/>
				</linearGradient>
				<path id="XMLID_786_" class="st90" d="M980.4,657.4c0,0-3.3-7.7,3.5-9.9c6.8-2.1,11.1,5.6,12,16.1c1.2,14.2-6.8,10.5-6.8,10.5
					L980.4,657.4z"/>
			</g>
		</g>
		<g id="XMLID_797_">
			<g id="XMLID_787_">
				<linearGradient id="XMLID_93_" gradientUnits="userSpaceOnUse" x1="992.5925" y1="524.13" x2="1097.2689" y2="786.548">
					<stop  offset="0" style="stop-color:#5E5441"/>
					<stop  offset="0.9247" style="stop-color:#4F443B"/>
				</linearGradient>
				<path id="XMLID_281_" class="st91" d="M1112.5,856.9c-64.8,19.8-103.5-11.1-113.7-50.3s6.3-83.2,4.8-119.5
					c-0.3-7-1.1-12.7-2.5-17.4c-5.6-20-19.7-22.3-33.8-24.7c-33.1-5.5-43.5-47.4,1-73c58.3-33.6,112.4-22.9,127.3,34.8
					c10.8,41.9,2.4,44.5,16.9,73c12,23.6,43.3,25,63.8,47.4c4.3,4.6,8.1,10.2,11.1,17C1205.4,783.9,1177.3,837.1,1112.5,856.9z"/>
				<linearGradient id="XMLID_94_" gradientUnits="userSpaceOnUse" x1="980.8889" y1="402.1531" x2="1076.6587" y2="719.9348">
					<stop  offset="0" style="stop-color:#5E5441"/>
					<stop  offset="1" style="stop-color:#413830"/>
				</linearGradient>
				<path id="XMLID_279_" class="st92" d="M1112.5,856.9c-64.8,19.8-103.5-11.1-113.7-50.3s6.3-83.2,4.8-119.5
					c-0.3-7-1.1-12.7-2.5-17.4c6.6,4.8,14.7,17.5,14.1,50.8c-1,55.6,6.3,100.6,59,106.4c52.7,5.8,91.9-23.7,100.6-61.4
					c3.4-14.8,3.1-27.9,1.5-38.2c4.3,4.6,8.1,10.2,11.1,17C1205.4,783.9,1177.3,837.1,1112.5,856.9z"/>
			</g>
			<g id="XMLID_789_">
				<linearGradient id="XMLID_95_" gradientUnits="userSpaceOnUse" x1="930.7274" y1="574.7557" x2="951.7678" y2="674.8787">
					<stop  offset="0" style="stop-color:#5E5441"/>
					<stop  offset="1" style="stop-color:#413830"/>
				</linearGradient>
				<path id="XMLID_259_" class="st93" d="M907.2,635.4c-11.1,17.4,9.1,30.2,37.7,25.9c28.7-4.4,40.9-20,40.2-25.4
					S929.4,600.9,907.2,635.4z"/>
				<linearGradient id="XMLID_96_" gradientUnits="userSpaceOnUse" x1="961.8428" y1="513.5738" x2="1086.0956" y2="825.0685">
					<stop  offset="0" style="stop-color:#5E5441"/>
					<stop  offset="0.9247" style="stop-color:#4F443B"/>
				</linearGradient>
				<path id="XMLID_802_" class="st94" d="M1086.5,592.7c-4,21.8-43.3,36-64.2,44.6c-9.3,3.8-19.4,6.7-30.3,8.2
					c-17.3,2.3-41.5,7.3-70-10.6c-0.5-0.3-1-0.6-1.5-1c-14.1-9.5-22.2-25-23.8-41.7c-2.6-26.7,6.3-45.3,25-57.2
					c34.9-22.2,45,30.1,84.6,13.1C1075.7,518.3,1089.4,576.8,1086.5,592.7z"/>
				<linearGradient id="XMLID_97_" gradientUnits="userSpaceOnUse" x1="950.3478" y1="572.3152" x2="970.9662" y2="670.4301">
					<stop  offset="0" style="stop-color:#5E5441"/>
					<stop  offset="1" style="stop-color:#413830"/>
				</linearGradient>
				<path id="XMLID_800_" class="st95" d="M1022.4,637.4c-9.3,3.8-19.4,6.7-30.3,8.2c-17.3,2.3-41.5,7.3-70-10.6
					c-0.5-0.3-1-0.6-1.5-1c-14.1-9.5-22.8-25-23.8-41.7c8,10.3,34,23.7,70.4,33.5C1001.3,634.9,1008.1,637.1,1022.4,637.4z"/>
			</g>
			<linearGradient id="XMLID_98_" gradientUnits="userSpaceOnUse" x1="920.6453" y1="582.89" x2="938.4208" y2="512.8765">
				<stop  offset="0" style="stop-color:#5E5441"/>
				<stop  offset="0.9247" style="stop-color:#B0A05A"/>
			</linearGradient>
			<path id="XMLID_898_" class="st96" d="M918.2,538.1c-10.9,8.3-18.9,20.9-19.2,32.8c-0.4,12,9.8,15.2,12,8
				c2.2-7.3,2.9-28.3,17.8-38.1c14.9-9.8,28.7-2.5,28.7-2.5S941.6,520.3,918.2,538.1z"/>
			<linearGradient id="XMLID_99_" gradientUnits="userSpaceOnUse" x1="1050.3672" y1="586.7778" x2="1044.0792" y2="483.269">
				<stop  offset="0" style="stop-color:#5E5441"/>
				<stop  offset="0.9247" style="stop-color:#B0A05A"/>
			</linearGradient>
			<path id="XMLID_790_" class="st97" d="M1053.8,542.4c-13.5-3.4-28.3-0.8-33.9,3.5c-5.6,4.4,7.7,10.2,28.3,7.4
				c11.8-1.6,30.1,10,30.1,10S1073.8,547.5,1053.8,542.4z"/>
		</g>
	</g>
</g>
</svg>
