<svg width="243" height="182" viewBox="0 0 243 182" fill="none" xmlns="http://www.w3.org/2000/svg">
<g filter="url(#filter0_d_224_773)">
<path d="M61.4536 25.5705C67.4905 25.5705 72.3845 20.771 72.3845 14.8506C72.3845 8.9301 67.4905 4.13062 61.4536 4.13062C55.4166 4.13062 50.5227 8.9301 50.5227 14.8506C50.5227 20.771 55.4166 25.5705 61.4536 25.5705Z" fill="#F7F7F7" stroke="black" stroke-width="2.13543"/>
<path d="M59.1394 11.508C59.7023 11.508 60.1586 11.0359 60.1586 10.4536C60.1586 9.87123 59.7023 9.39917 59.1394 9.39917C58.5765 9.39917 58.1201 9.87123 58.1201 10.4536C58.1201 11.0359 58.5765 11.508 59.1394 11.508Z" fill="black" stroke="black" stroke-width="2.13543"/>
<path d="M65.7514 15.7956C66.392 15.7956 66.9113 15.2763 66.9113 14.6357C66.9113 13.9951 66.392 13.4758 65.7514 13.4758C65.1108 13.4758 64.5916 13.9951 64.5916 14.6357C64.5916 15.2763 65.1108 15.7956 65.7514 15.7956Z" fill="black" stroke="black" stroke-width="2.13543"/>
<path d="M54.9573 15.9417C55.6371 17.0434 56.3166 18.1448 57.0665 18.8592C57.8164 19.5737 58.6365 19.9017 59.6792 19.9719C60.7218 20.042 61.9871 19.8545 63.252 19.6672" stroke="black" stroke-width="2.13543"/>
<path d="M51.8993 9.04873C51.8408 7.36219 51.7821 5.67497 51.5303 4.33357C51.2786 2.99215 50.8334 1.99626 50.3879 1" stroke="black" stroke-width="2.13543"/>
<path d="M51.8993 9.04864C49.8846 6.90504 47.8695 4.76112 45.854 2.6167" stroke="black" stroke-width="2.13543"/>
<path d="M51.8992 9.04871C50.4587 8.45142 49.0177 7.85393 47.7522 7.60777C46.4868 7.36161 45.3972 7.4671 44.3074 7.57256" stroke="black" stroke-width="2.13543"/>
<path d="M51.8993 9.04883C50.482 9.40022 49.0644 9.75169 47.9629 10.2907C46.8615 10.8296 46.0765 11.556 45.2915 12.2823" stroke="black" stroke-width="2.13543"/>
<path d="M71.6194 18.6855C72.6975 21.0761 73.7754 23.4662 74.853 25.8555" stroke="black" stroke-width="2.13543"/>
<path d="M71.6194 18.6855C73.5646 19.1309 75.5095 19.5761 76.7924 20.0683C78.0753 20.5605 78.6962 21.0994 79.3167 21.6379" stroke="black" stroke-width="2.13543"/>
<path d="M71.6194 18.6857C72.8496 17.5375 74.0797 16.3893 75.1693 15.5576C76.259 14.7257 77.208 14.2102 78.1568 13.6948" stroke="black" stroke-width="2.13543"/>
<path d="M54.296 28.5374C45.5484 25.1908 36.8008 21.844 28.0515 18.4968" stroke="black" stroke-width="2.13543"/>
<path d="M28.0583 18.4874C27.727 15.9198 27.3956 13.3515 27.0642 10.783" stroke="black" stroke-width="2.13543"/>
<path d="M28.0583 18.4873C27.2303 17.7421 26.4018 16.9965 25.2254 16.6566C24.0489 16.3167 22.5247 16.383 21 16.4493" stroke="black" stroke-width="2.13543"/>
<path d="M28.0584 18.4873C26.3851 19.5973 24.7116 20.7074 23.0381 21.8176" stroke="black" stroke-width="2.13543"/>
<path d="M63.2058 32.3559C72.1698 32.3394 81.1341 32.3227 90.0966 32.3062" stroke="black" stroke-width="2.13543"/>
<path d="M90.0833 32.3062C90.3649 30.6995 90.6465 29.0923 91.0111 28.04C91.3756 26.9878 91.8229 26.4907 92.2703 25.9937" stroke="black" stroke-width="2.13543"/>
<path d="M90.0833 32.3062C92.1878 31.8422 94.2919 31.3783 95.6922 31.1215C97.0924 30.8648 97.7882 30.8151 98.4836 30.7654" stroke="black" stroke-width="2.13543"/>
<path d="M90.0833 32.3062C91.3761 33.3504 92.6685 34.3942 93.7785 35.1397C94.8886 35.8852 95.8165 36.3326 96.7438 36.7797" stroke="black" stroke-width="2.13543"/>
<path d="M54.8748 24.7192C54.336 25.5061 53.4247 27.1464 52.8614 29.1265C52.2981 31.1067 52.0827 33.4261 52.1573 36.0359C52.2319 38.6454 52.5964 41.5449 52.961 44.2373C53.3255 46.9297 53.69 49.415 53.9717 50.8565C54.2535 52.298 54.4521 52.6952 54.6509 53.0927L71.999 45.9849C70.0605 42.3397 68.1222 38.6952 66.5565 35.9365C64.9908 33.1778 63.7979 31.3057 62.9115 29.8476C62.0251 28.3896 61.4452 27.3458 61.1551 26.6912C60.8649 26.0366 60.865 25.7716 60.2439 25.5312C59.6228 25.2908 58.3802 25.0754 57.5269 24.8352C56.6736 24.5951 56.2097 24.33 55.8949 24.1643C55.5801 23.9985 55.4144 23.9323 54.8756 24.7193L54.8748 24.7192Z" fill="#ED7B34" stroke="black" stroke-width="2.13543"/>
<path d="M63.7515 93.7644C63.892 85.0951 64.0326 76.4262 64.1732 67.7546" stroke="black" stroke-width="2.13543"/>
<path d="M82.3806 58.1921C89.8323 64.0503 97.2836 69.9083 104.734 75.765" stroke="black" stroke-width="2.13543"/>
<path d="M54.6433 53.0844C55.3788 57.2692 56.1144 61.4546 56.4821 64.6366C56.8497 67.8186 56.8498 69.9978 56.932 71.2162C57.0141 72.4347 57.1782 72.6924 58.3848 72.2234C59.5915 71.7545 61.8409 70.5595 66 68.5092C70.1592 66.4588 76.2278 63.5535 80.1995 61.6671C84.1711 59.7809 86.0456 58.9139 86.7837 58.0355C87.5217 57.1571 87.1234 56.2668 85.6122 55.142C84.101 54.0171 81.4768 52.6582 79.0209 51.0915C76.5651 49.5249 74.2775 47.7505 71.9904 45.9763L54.6423 53.0841L54.6433 53.0844Z" fill="#FDCA01" stroke="black" stroke-width="2.13543"/>
<path d="M63.3545 93.285C62.9622 92.8108 62.1773 91.8618 60.8711 91.3696C59.5648 90.8773 57.7372 90.8421 56.1729 91.3283C54.6087 91.8144 53.3083 92.822 52.5818 93.941C51.8554 95.0601 51.7031 96.2902 51.7266 97.2451C51.7501 98.2 51.9493 98.8795 52.4004 99.014C52.8514 99.1484 53.5544 98.7384 54.8431 98.0471C56.1319 97.3559 58.0063 96.3835 59.4709 95.6923C60.9354 95.001 61.9898 94.591 62.634 94.3157C63.2783 94.0404 63.5126 93.8998 63.6297 93.8295C63.7468 93.7593 63.7467 93.7593 63.3545 93.285L63.3545 93.285Z" fill="#ED7B34" stroke="black" stroke-width="2.13543"/>
<path d="M104.729 75.7633C104.541 74.8851 104.354 74.0065 104.383 72.9694C104.412 71.9325 104.658 70.7375 105.367 69.7882C106.076 68.8391 107.248 68.1361 108.343 67.6382C109.439 67.1403 110.458 66.8474 111.478 66.8534C112.497 66.86 113.516 67.1639 114.014 67.5155C114.512 67.8671 114.488 68.2655 113.955 68.8686C113.422 69.4718 112.379 70.2801 110.897 71.4752C109.415 72.6703 107.494 74.2519 106.393 75.031C105.292 75.8101 105.011 75.7867 104.729 75.7632" fill="#FDCA01"/>
<path d="M104.729 75.7633C104.541 74.8851 104.354 74.0065 104.383 72.9694C104.412 71.9325 104.658 70.7375 105.367 69.7882C106.076 68.8391 107.248 68.1361 108.343 67.6382C109.439 67.1403 110.458 66.8474 111.478 66.8534C112.497 66.86 113.516 67.1639 114.014 67.5155C114.512 67.8671 114.488 68.2655 113.955 68.8686C113.422 69.4718 112.379 70.2801 110.897 71.4752C109.415 72.6703 107.494 74.2519 106.393 75.031C105.292 75.8101 105.011 75.7867 104.729 75.7632" stroke="black" stroke-width="2.13543"/>
<path d="M138.152 70.28C144.034 70.28 148.802 65.386 148.802 59.3491C148.802 53.3121 144.034 48.4182 138.152 48.4182C132.27 48.4182 127.502 53.3121 127.502 59.3491C127.502 65.386 132.27 70.28 138.152 70.28Z" fill="white" stroke="black" stroke-width="2.13543"/>
<path d="M135.838 57.5521C136.517 57.5521 137.068 57.0171 137.068 56.3571C137.068 55.6971 136.517 55.1621 135.838 55.1621C135.159 55.1621 134.608 55.6971 134.608 56.3571C134.608 57.0171 135.159 57.5521 135.838 57.5521Z" fill="black" stroke="black" stroke-width="2.13543"/>
<path d="M143.21 59.2445C143.89 59.2445 144.441 58.6622 144.441 57.944C144.441 57.2258 143.89 56.6436 143.21 56.6436C142.531 56.6436 141.98 57.2258 141.98 57.944C141.98 58.6622 142.531 59.2445 143.21 59.2445Z" fill="black" stroke="black" stroke-width="2.13543"/>
<path d="M133.821 61.5476C134.995 62.8214 136.168 64.0949 137.621 64.5556C139.075 65.0162 140.808 64.6648 142.542 64.3134" stroke="black" stroke-width="2.13543"/>
<path d="M138.103 48.3731C133.986 45.971 129.869 43.5686 125.751 41.1658" stroke="black" stroke-width="2.13543"/>
<path d="M138.102 48.3732C138.086 45.4079 138.069 42.4421 138.053 39.4758" stroke="black" stroke-width="2.13543"/>
<path d="M138.103 48.3732C140.215 46.3602 142.328 44.347 144.44 42.334" stroke="black" stroke-width="2.13543"/>
<path d="M131.739 73.2175C124.482 67.6011 117.225 61.9845 109.967 56.3669" stroke="black" stroke-width="2.13543"/>
<path d="M109.969 56.3736C110.035 54.8001 110.101 53.226 109.927 51.9503C109.753 50.6745 109.339 49.6969 108.925 48.719" stroke="black" stroke-width="2.13543"/>
<path d="M109.969 56.3737C107.931 55.8602 105.893 55.3466 104.626 54.8911C103.358 54.4356 102.861 54.0379 102.364 53.6399" stroke="black" stroke-width="2.13543"/>
<path d="M109.969 56.3738C108.66 57.2353 107.351 58.0969 106.324 58.6767C105.296 59.2566 104.551 59.5549 103.805 59.8532" stroke="black" stroke-width="2.13543"/>
<path d="M139.392 74.4077C148.024 70.0666 156.657 65.7257 165.289 61.3848" stroke="black" stroke-width="2.13543"/>
<path d="M165.294 61.3822C165.51 60.0239 165.725 58.6653 166.106 57.5965C166.487 56.5277 167.034 55.7489 167.581 54.9702" stroke="black" stroke-width="2.13543"/>
<path d="M165.294 61.3824C166.852 61.0343 168.409 60.6864 169.727 60.4627C171.044 60.2391 172.121 60.1397 173.197 60.0403" stroke="black" stroke-width="2.13543"/>
<path d="M165.294 61.3823C166.604 62.5425 167.913 63.7023 168.799 64.3982C169.685 65.094 170.149 65.326 170.613 65.5577" stroke="black" stroke-width="2.13543"/>
<path d="M125.937 111.236C123.186 119.488 120.436 127.739 117.685 135.99" stroke="black" stroke-width="2.13543"/>
<path d="M142.681 110.989C144.073 119.422 145.465 127.856 146.857 136.289" stroke="black" stroke-width="2.13543"/>
<path d="M132.218 69.73C131.704 70.5585 130.677 72.2155 128.846 76.2749C127.015 80.3343 124.381 86.7956 121.747 93.2576L145.953 94.2518C144.362 87.3095 142.772 80.3678 141.67 76.3664C140.568 72.365 139.955 71.3046 139.459 70.7577C138.962 70.2107 138.58 70.1776 137.818 70.1113C137.056 70.045 135.913 69.9456 135.076 69.7552C134.239 69.5648 133.709 69.2831 133.37 69.1256C133.03 68.9681 132.881 68.9351 132.806 68.9184C132.731 68.9017 132.731 68.9018 132.218 69.7302L132.218 69.73Z" fill="#018FD7" stroke="black" stroke-width="2.13543"/>
<path d="M121.755 93.252C119.253 98.4379 116.751 103.624 115.55 106.623C114.348 109.622 114.448 110.434 115.798 111.006C117.149 111.577 119.75 111.908 123.346 112.173C126.941 112.438 131.53 112.637 136.07 112.886C140.61 113.134 145.1 113.433 147.37 113.275C149.64 113.118 149.689 112.505 149.292 110.707C148.894 108.91 148.049 105.927 147.419 102.986C146.79 100.045 146.375 97.1455 145.961 94.2462L121.755 93.2521H121.755L121.755 93.252Z" fill="#A1DAF7" stroke="black" stroke-width="2.13543"/>
<path d="M117.209 135.519C116.738 135.035 115.795 134.066 114.516 133.429C113.236 132.792 111.619 132.487 110.202 132.739C108.784 132.991 107.565 133.799 106.798 134.696C106.03 135.592 105.714 136.576 105.873 137.068C106.031 137.56 106.664 137.56 108.099 137.531C109.534 137.501 111.772 137.443 113.5 137.32C115.228 137.197 116.446 137.009 117.058 136.779C117.669 136.549 117.674 136.276 117.679 136.003C117.679 136.003 117.68 136.003 117.209 135.519L117.209 135.519Z" fill="#018FD7" stroke="black" stroke-width="2.13543"/>
<path d="M147.277 136.444C147.552 137.042 148.248 137.79 149.627 138.239C151.006 138.689 153.068 138.841 154.755 138.812C156.442 138.783 157.755 138.572 158.258 138.027C158.762 137.483 158.457 136.604 157.784 135.801C157.11 134.999 156.068 134.273 154.761 133.874C153.455 133.475 151.885 133.405 150.596 133.639C149.307 133.874 148.3 134.413 147.723 134.906C147.147 135.399 147.001 135.847 147.277 136.444L147.277 136.444Z" fill="#A1DAF7" stroke="black" stroke-width="2.13543"/>
<path d="M171.725 69.8457C171.55 68.6032 171.451 66.267 171.534 64.8254C171.617 63.3838 171.882 62.8371 172.313 62.7045C172.744 62.5719 173.34 62.8536 173.962 63.5331C174.583 64.2126 175.229 65.2896 175.751 66.4245C176.273 67.5595 176.67 68.7524 176.09 69.5888C175.51 70.4252 173.953 70.9057 173.05 71.0716C172.147 71.2375 171.899 71.0885 171.725 69.8458L171.725 69.8457Z" fill="white" stroke="black" stroke-width="2.13543"/>
<path d="M185.576 72.6889C186.123 72.5646 187.217 72.3161 188.675 72.1422C190.133 71.9682 191.956 71.8688 193.115 71.9767C194.275 72.0846 194.772 72.3994 195.012 72.8634C195.252 73.3273 195.236 73.9403 194.374 74.6691C193.513 75.3978 191.806 76.2428 190.555 76.7565C189.305 77.2701 188.509 77.4524 187.722 76.9804C186.935 76.5085 186.156 75.3818 185.709 74.5783C185.262 73.7747 185.146 73.2942 185.088 73.0537C185.029 72.8132 185.029 72.8132 185.576 72.6889L185.576 72.6889Z" fill="white" stroke="black" stroke-width="2.13543"/>
<path d="M178.237 87.7276C183.796 87.7276 188.303 83.5995 188.303 78.5072C188.303 73.415 183.796 69.2869 178.237 69.2869C172.678 69.2869 168.172 73.415 168.172 78.5072C168.172 83.5995 172.678 87.7276 178.237 87.7276Z" fill="white" stroke="black" stroke-width="2.13543"/>
<path d="M177.609 74.6868C178.096 74.6868 178.491 74.3029 178.491 73.8294C178.491 73.3558 178.096 72.9719 177.609 72.9719C177.122 72.9719 176.727 73.3558 176.727 73.8294C176.727 74.3029 177.122 74.6868 177.609 74.6868Z" fill="black" stroke="black" stroke-width="2.13543"/>
<path d="M182.601 80.2813C183.788 80.2813 184.751 79.2798 184.751 78.0444C184.751 76.8091 183.788 75.8076 182.601 75.8076C181.414 75.8076 180.451 76.8091 180.451 78.0444C180.451 79.2798 181.414 80.2813 182.601 80.2813Z" fill="white" stroke="black" stroke-width="3"/>
<path d="M172.005 80.7058C172.867 81.6755 173.729 82.6448 174.802 83.2577C175.875 83.8706 177.159 84.1274 178.442 84.3841" stroke="black" stroke-width="2.13543"/>
<path d="M175.84 79.7967C175.786 79.3052 175.731 78.8127 175.677 78.3206C176.132 78.2841 176.588 78.2475 177.043 78.2112" stroke="black"/>
<path d="M179.708 101.219C175.25 104.003 170.792 106.786 168.279 108.036C165.767 109.286 165.2 109.003 164.439 108.474C163.679 107.946 162.726 107.173 161.771 106.4" stroke="black" stroke-width="2.13543"/>
<path d="M194.089 121.386C193.007 126.669 191.925 131.952 190.623 135.148C189.322 138.343 187.801 139.451 186.281 140.56" stroke="black" stroke-width="2.13543"/>
<path d="M206.536 119.237C210.66 120.216 214.784 121.196 217.296 122.098C219.809 123 220.711 123.825 221.612 124.649" stroke="black" stroke-width="2.13543"/>
<path d="M177.741 88.2102C177.316 88.7385 176.466 89.7952 176.298 92.0246C176.131 94.2541 176.646 97.6559 177.587 100.697C178.528 103.738 179.893 106.418 182.277 110.116C184.661 113.814 188.063 118.53 191.246 121.262C194.429 123.994 197.392 124.741 199.737 124.857C202.082 124.973 203.809 124.457 205.11 123.671C206.412 122.885 207.288 121.829 207.726 120.579C208.164 119.329 208.164 117.886 207.855 115.541C207.546 113.196 206.927 109.948 205.652 106.804C204.376 103.66 202.443 100.619 200.369 98.1066C198.294 95.5939 196.078 93.6095 193.63 91.9086C191.182 90.2076 188.501 88.7902 186.697 87.9654C184.893 87.1406 183.966 86.9087 182.78 86.973C181.594 87.0373 180.151 87.3981 179.339 87.5657C178.528 87.7333 178.347 87.7075 178.257 87.6946C178.166 87.6814 178.166 87.6814 177.741 88.2101L177.741 88.2102Z" fill="#ED7B34" stroke="black" stroke-width="2.13543"/>
<path d="M180.799 95.5C176.212 97.2008 171.625 98.9017 168.739 99.5847C165.852 100.268 164.667 99.9327 163.713 99.1984C162.76 98.4641 162.038 97.3302 161.316 96.1958" stroke="black" stroke-width="2.13543"/>
<path d="M199.511 120.46C199.717 124.249 199.923 128.037 200.143 130.911C200.362 133.784 200.594 135.743 200.026 137.289C199.46 138.835 198.094 139.969 196.728 141.103" stroke="black" stroke-width="2.13543"/>
</g>
<defs>
<filter id="filter0_d_224_773" x="0.953613" y="0.564209" width="241.379" height="181.36" filterUnits="userSpaceOnUse" color-interpolation-filters="sRGB">
<feFlood flood-opacity="0" result="BackgroundImageFix"/>
<feColorMatrix in="SourceAlpha" type="matrix" values="0 0 0 0 0 0 0 0 0 0 0 0 0 0 0 0 0 0 127 0" result="hardAlpha"/>
<feMorphology radius="5" operator="erode" in="SourceAlpha" result="effect1_dropShadow_224_773"/>
<feOffset dy="20"/>
<feGaussianBlur stdDeviation="12.5"/>
<feComposite in2="hardAlpha" operator="out"/>
<feColorMatrix type="matrix" values="0 0 0 0 0 0 0 0 0 0 0 0 0 0 0 0 0 0 0.1 0"/>
<feBlend mode="normal" in2="BackgroundImageFix" result="effect1_dropShadow_224_773"/>
<feBlend mode="normal" in="SourceGraphic" in2="effect1_dropShadow_224_773" result="shape"/>
</filter>
</defs>
</svg>
