<svg width="104" height="125" viewBox="0 0 104 125" fill="none" xmlns="http://www.w3.org/2000/svg">
<path d="M9.6419 77.5619C8.86934 79.1479 7.32442 82.3198 6.3629 84.5716C5.40137 86.8235 5.02362 88.1554 4.479 89.476C3.93438 90.7965 3.2231 92.1058 2.69516 93.0879C2.1672 94.0699 1.82266 94.7245 1.50034 95.6333C1.17802 96.5421 0.877968 97.7047 0.689038 98.5739C0.500233 99.443 0.422417 100.019 0.710956 100.521C1.00044 101.023 1.65621 101.452 2.70655 101.83C3.7569 102.208 5.20176 102.535 6.45756 102.738C7.71346 102.942 8.78043 103.021 9.3639 103.117C9.94741 103.213 10.0474 103.326 10.008 103.856C9.96884 104.387 9.79103 105.335 9.76877 106.402C9.74681 107.469 9.88011 108.654 10.1804 109.63C10.4808 110.606 10.9475 111.374 11.659 111.927C12.3706 112.48 13.3264 112.818 13.9598 112.97C14.5932 113.123 14.9044 113.089 15.0652 113.196C15.2261 113.304 15.237 113.552 15.2427 114.325C15.249 115.099 15.249 116.397 15.1038 117.378C14.9592 118.36 14.6702 119.026 14.3034 119.873C13.9366 120.719 13.4921 121.746 13.1531 122.689C12.8141 123.632 12.5807 124.489 12.4363 125.229C12.2917 125.968 12.2365 126.589 12.1475 127.537C12.0584 128.485 11.9364 129.761 11.8529 130.81C11.7695 131.86 11.7253 132.684 11.8978 133.469C12.0703 134.253 12.4594 134.998 12.854 135.675C13.2486 136.353 13.6487 136.962 13.8986 137.543C14.1485 138.125 14.2484 138.678 14.5877 139.366C14.927 140.055 15.505 140.879 16.5998 141.957C17.6947 143.035 19.3063 144.366 21.1013 145.456C22.8964 146.545 24.8746 147.391 27.3811 148.277C29.8875 149.163 32.9217 150.089 35.9448 150.834C38.9679 151.578 41.98 152.143 44.9808 152.51C47.9816 152.876 50.9714 153.046 53.9666 152.989C56.9619 152.933 59.9628 152.65 63.1136 152.058C66.2643 151.465 69.5655 150.562 72.6218 149.462C75.6783 148.361 78.4902 147.063 81.2633 145.652C84.0364 144.241 86.7703 142.718 88.8321 141.267C90.8937 139.817 92.283 138.44 93.7724 136.933C95.2618 135.426 96.8511 133.789 98.2793 132.13C99.7074 130.471 100.975 128.789 101.908 127.345C102.842 125.9 103.442 124.692 103.736 123.547C104.031 122.401 104.02 121.318 103.925 120.398C103.831 119.478 103.653 118.722 103.142 117.87C102.631 117.017 101.787 116.069 100.886 115.318C99.9862 114.568 99.0304 114.015 98.0968 113.563C97.1632 113.111 96.2518 112.761 95.4014 112.592C94.5511 112.422 93.7619 112.434 93.106 112.558C92.45 112.682 91.9276 112.919 91.5995 113.1C91.2714 113.28 91.1382 113.405 91.0383 113.399C90.9386 113.393 90.8718 113.259 90.8715 112.881C90.8712 112.502 90.938 111.882 90.9712 111.244C91.0045 110.606 91.0045 109.952 90.9157 109.173C90.827 108.394 90.6491 107.491 90.6322 106.926C90.6165 106.362 90.7598 106.136 91.3046 105.622C91.8493 105.108 92.794 104.307 93.4108 103.545C94.0275 102.784 94.3165 102.061 94.5054 101.367C94.6942 100.673 94.7833 100.007 94.6836 99.4261C94.5838 98.8449 94.2949 98.3483 93.8558 97.5243C93.4167 96.7004 92.8277 95.5491 92.1274 93.8561C91.4271 92.163 90.6158 89.9283 89.9934 88.1673C89.3709 86.4064 88.9374 85.1197 88.4929 83.7821C88.0483 82.4445 87.5926 81.0562 86.998 79.442C86.4034 77.8279 85.6699 75.9882 84.9087 74.6504C84.1476 73.3128 83.3585 72.4775 82.425 71.7268C81.4915 70.9761 80.4133 70.3101 79.2742 69.7569C78.135 69.2037 76.9347 68.7635 75.6399 68.4587C74.345 68.1538 72.9557 67.9844 71.9055 67.8434C70.8552 67.7023 70.1439 67.5895 69.527 67.347C68.9102 67.1046 68.3878 66.7322 67.8821 66.3259C67.3763 65.9196 66.8873 65.4793 66.4983 65.1857C66.1094 64.8921 65.8204 64.7454 65.498 64.6774C65.1756 64.6092 64.8199 64.6207 64.3754 64.463C63.9309 64.3054 63.3975 63.9779 62.8417 63.5435C62.2859 63.109 61.7079 62.5672 61.2188 61.9917C60.7296 61.4161 60.3296 60.8066 60.157 60.1349C59.9845 59.4632 60.04 58.7295 60.1444 57.9111C60.2501 57.0927 60.4056 56.1897 60.5778 55.2811C60.75 54.3725 60.939 53.4582 61.0613 52.8769C61.1836 52.2956 61.2395 52.0466 61.295 51.7983C61.6951 51.7531 62.096 51.7079 62.3401 51.5617C62.5841 51.4152 62.6731 51.1669 62.8009 50.8283C62.9289 50.4897 63.0954 50.0607 63.2233 49.7447C63.3509 49.4287 63.44 49.225 63.5291 49.0218C63.8292 49.97 64.1296 50.9191 64.2962 51.4949C64.4628 52.0705 64.4963 52.2735 64.5738 52.245C64.6516 52.2163 64.7736 51.957 64.8849 51.3927C64.9963 50.8285 65.0963 49.9594 65.1352 49.1016C65.1741 48.2439 65.1509 47.3974 65.1964 46.9229C65.2409 46.4484 65.3519 46.3468 65.6024 46.5052C65.853 46.6635 66.2419 47.0813 66.7366 47.4762C67.2312 47.8711 67.8314 48.2436 68.1978 48.3843C68.5642 48.5251 68.6975 48.4346 68.498 48.1753C68.2982 47.9161 67.7648 47.4872 67.5032 47.1936C67.2416 46.9 67.2526 46.7422 67.4906 46.5273C67.7299 46.3123 68.1966 46.0415 68.5687 45.1954C68.9408 44.3492 69.2187 42.927 69.5077 41.5386C69.7965 40.1502 70.0967 38.7958 70.1802 37.6445C70.2637 36.4933 70.1304 35.5452 69.8691 34.4616C69.6082 33.3781 69.219 32.1591 69.0465 31.4591C68.874 30.7591 68.9185 30.5785 69.1189 30.6237C69.3196 30.6689 69.6752 30.9399 69.9198 31.0976C70.1644 31.2553 70.2976 31.3005 70.2694 30.4486C70.2412 29.5967 70.0524 27.8471 69.9909 26.91C69.9298 25.9729 69.9972 25.8486 70.0796 25.7074C70.1631 25.5663 70.2631 25.4084 70.291 24.9232C70.3192 24.4383 70.2754 23.6256 70.313 23.1849C70.3519 22.7442 70.4742 22.6764 70.6191 22.671C70.764 22.6647 70.9305 22.722 70.9469 22.3274C70.9626 21.9327 70.83 21.0862 70.541 20.1888C70.2522 19.2915 69.8076 18.3434 69.5242 17.7395C69.2407 17.1355 69.1185 16.8761 69.2243 16.7967C69.33 16.7174 69.6635 16.819 69.9247 16.9321C70.186 17.0451 70.3749 17.1694 70.3246 16.948C70.2744 16.7279 69.9854 16.1637 69.6798 15.6389C69.3744 15.114 69.0519 14.6286 68.7298 14.3124C68.4077 13.9961 68.0853 13.8493 68.0239 13.7304C67.9625 13.6116 68.1625 13.5211 68.524 13.5778C68.8856 13.6345 69.4079 13.8377 69.6853 13.8546C69.9625 13.8705 69.9961 13.7024 69.7135 13.2341C69.4306 12.7658 68.8303 11.9983 68.2135 11.3379C67.5968 10.6775 66.9632 10.1245 66.3908 9.65038C65.8185 9.17628 65.3072 8.78123 64.8237 8.34108C64.3402 7.90094 63.8845 7.41557 63.3677 6.95835C62.851 6.50114 62.273 6.07223 61.6729 5.79545C61.0727 5.51866 60.4502 5.39447 59.7945 5.19703C59.1387 4.99955 58.4497 4.72874 58.1379 4.49738C57.8262 4.26614 57.893 4.07419 58.1536 3.98931C58.4152 3.90459 58.871 3.92718 59.1317 3.88195C59.3923 3.83704 59.4591 3.724 59.2261 3.56051C58.9934 3.3968 58.4598 3.18244 57.9541 2.96802C57.4484 2.75367 56.9706 2.53912 56.2868 2.51064C55.6031 2.48198 54.7139 2.64026 53.8748 2.75875C53.0357 2.87723 52.2466 2.95623 51.3742 2.89444C50.5019 2.83233 49.546 2.62941 48.5124 2.27386C47.4787 1.91841 46.3674 1.41054 45.0503 0.975845C43.7332 0.541146 42.2105 0.179945 40.8432 0.112071C39.476 0.0442287 38.2645 0.270046 36.953 0.653625C35.6413 1.03739 34.2298 1.57919 32.9573 2.11533C31.6846 2.6515 30.551 3.18198 29.5507 3.83671C28.5502 4.49146 27.6833 5.2703 26.7496 6.20719C25.816 7.14408 24.8157 8.23891 23.8931 9.44096C22.9706 10.6432 22.1259 11.9525 21.3645 13.0754C20.6032 14.1984 19.9253 15.1353 19.2473 16.0044C18.5693 16.8735 17.8913 17.6749 17.4245 18.4935C16.9576 19.312 16.702 20.1473 16.4631 21.0898C16.2241 22.0324 16.0018 23.0821 15.7239 24.1826C15.446 25.2831 15.1126 26.4343 14.8848 27.3826C14.6571 28.3308 14.5347 29.0758 14.5349 29.4084C14.5351 29.741 14.6572 29.6619 14.8795 29.3574C15.1015 29.0529 15.4238 28.5223 15.6906 28.1103C15.9575 27.6982 16.1686 27.4048 16.2297 27.501C16.2909 27.5972 16.2015 28.0826 16.0465 28.7711C15.891 29.4596 15.6686 30.3513 15.5576 30.9835C15.4466 31.6157 15.4466 31.9882 15.5187 32.1006C15.5909 32.2131 15.7354 32.0662 15.9522 31.8688C16.169 31.6713 16.458 31.4229 16.608 31.6662C16.7579 31.9092 16.7692 32.6429 16.9025 33.7999C17.0358 34.957 17.2915 36.5372 17.6363 37.8183C17.9809 39.0994 18.4144 40.0813 18.8981 40.8149C19.3818 41.5485 19.9152 42.0338 20.215 42.4741C20.5148 42.9144 20.5814 43.3095 20.6035 43.6423C20.6255 43.9752 20.6034 44.2461 20.8482 44.7146C21.0931 45.1831 21.6043 45.8491 22.2767 46.7408C22.9491 47.6325 23.7827 48.7499 24.3607 49.4949C24.9387 50.2399 25.261 50.6123 25.5721 50.7755C25.8832 50.9385 26.1834 50.8937 26.3946 50.9392C26.6057 50.9847 26.7281 51.1201 26.8055 51.4589C26.883 51.7976 26.9163 52.3394 26.9887 52.7289C27.0612 53.1184 27.1722 53.3553 27.3165 53.3717C27.4608 53.3877 27.6386 53.1851 27.8336 53.1287C28.0287 53.0724 28.2399 53.1628 28.4229 53.4281C28.6061 53.6938 28.7616 54.1339 28.8895 54.4725C29.0174 54.8112 29.1175 55.048 29.2394 55.0871C29.3614 55.1263 29.506 54.9679 29.6843 54.9683C29.8624 54.9687 30.0737 55.1266 30.3681 55.4767C30.6626 55.8267 31.0404 56.3685 31.5462 56.8707C32.0521 57.3728 32.6856 57.8356 33.3469 58.2701C34.0082 58.7046 34.6974 59.111 35.2698 59.3817C35.8421 59.6524 36.2978 59.7879 36.4751 59.9911C36.6523 60.1943 36.5523 60.4653 35.8469 60.8374C35.1414 61.2097 33.8299 61.6837 32.8186 61.9884C31.8072 62.2933 31.0959 62.4287 30.3181 62.4176C29.5402 62.4048 28.6955 62.2485 27.8896 62.1918C27.0837 62.1351 26.3168 62.179 25.6108 62.3494C24.9049 62.5186 24.2603 62.8122 23.1322 63.1451C22.0042 63.4781 20.3927 63.8506 19.2031 64.3642C18.0135 64.8779 17.2466 65.5325 16.513 66.3905C15.7793 67.2484 15.0791 68.3094 14.0677 69.9405C13.0563 71.5716 11.7337 73.7725 11.0725 74.8729C10.4112 75.9733 10.4106 75.9738 9.63807 77.5598L9.6419 77.5619Z" fill="#25334F"/>
</svg>
