<svg width="18" height="22" viewBox="0 0 18 22" fill="currentColor" xmlns="http://www.w3.org/2000/svg">
<path fill-rule="evenodd" clip-rule="evenodd" d="M5.47762 0.60092C5.83616 0.808328 5.95868 1.26712 5.75128 1.62567C5.55271 1.96893 5.40712 2.34636 5.32551 2.74723C5.38406 2.80469 5.44396 2.8608 5.50514 2.91549C6.32957 1.90025 7.58855 1.25012 9.00016 1.25012C10.4129 1.25012 11.6728 1.90129 12.4972 2.91795C12.5579 2.86377 12.6173 2.8082 12.6754 2.75129C12.594 2.34891 12.4481 1.97009 12.2488 1.62567C12.0414 1.26712 12.1639 0.808328 12.5225 0.60092C12.881 0.393513 13.3398 0.516034 13.5472 0.87458C13.9024 1.48854 14.137 2.18147 14.2183 2.92006C14.2416 3.13198 14.1737 3.3438 14.0314 3.50259C13.7896 3.77253 13.5263 4.02289 13.2442 4.25102C13.41 4.7205 13.5002 5.22532 13.5002 5.75012C13.5002 5.95368 13.4866 6.15446 13.4602 6.35153C13.3543 7.14327 12.7073 7.64592 12.0428 7.75439C11.8614 7.78401 11.6791 7.81102 11.496 7.83538C11.6477 8.0625 11.7692 8.31149 11.8549 8.57664C13.1695 8.41573 14.4498 8.14514 15.6867 7.77435C15.6212 6.88104 15.5053 6.00196 15.3417 5.1399C15.2645 4.73295 15.5319 4.34046 15.9388 4.26327C16.3458 4.18607 16.7383 4.45339 16.8155 4.86035C17.0269 5.97517 17.1636 7.11622 17.2201 8.27798C17.2365 8.6154 17.0254 8.92215 16.7043 9.02723C15.1774 9.52692 13.5854 9.88211 11.9444 10.0767C11.8703 10.4575 11.7242 10.8125 11.5208 11.127C13.5869 11.3361 15.5788 11.7994 17.464 12.4854C17.7756 12.5988 17.9758 12.9034 17.9562 13.2345C17.8278 15.4042 17.4197 17.4995 16.7674 19.4843C16.638 19.8778 16.2142 20.092 15.8207 19.9626C15.4272 19.8333 15.213 19.4094 15.3424 19.0159C15.8983 17.3246 16.2654 15.5473 16.4187 13.7086C15.9182 13.5402 15.4101 13.3884 14.895 13.2538C14.9627 13.4884 14.9993 13.7381 14.9993 14.0001C14.9993 17.9559 12.4775 21.5001 8.99928 21.5001C5.52108 21.5001 2.99928 17.9559 2.99928 14.0001C2.99928 13.7383 3.03584 13.4887 3.10348 13.2542C2.58888 13.3887 2.08127 13.5404 1.58128 13.7086C1.73457 15.5473 2.10172 17.3246 2.65763 19.0159C2.78697 19.4094 2.57282 19.8333 2.17932 19.9626C1.78582 20.092 1.36197 19.8778 1.23263 19.4843C0.580256 17.4995 0.172206 15.4042 0.0438003 13.2345C0.0242079 12.9034 0.224373 12.5988 0.536022 12.4854C2.12188 11.9083 3.78302 11.4888 5.50042 11.2457C5.50368 11.2452 5.50694 11.2448 5.5102 11.2443C5.83115 11.199 6.15404 11.1599 6.47876 11.127C6.27538 10.8125 6.12926 10.4574 6.05515 10.0767C4.4142 9.88211 2.82214 9.52692 1.29529 9.02723C0.974234 8.92215 0.763045 8.6154 0.77946 8.27798C0.835981 7.11622 0.972649 5.97517 1.18412 4.86035C1.26132 4.45339 1.6538 4.18607 2.06076 4.26327C2.46772 4.34046 2.73504 4.73295 2.65784 5.1399C2.49432 6.00196 2.37836 6.88104 2.31284 7.77435C3.54977 8.14514 4.83017 8.41574 6.14473 8.57665C6.23046 8.31146 6.35209 8.06245 6.50389 7.83532C6.32092 7.81097 6.13878 7.78398 5.95749 7.75439C5.29303 7.64592 4.64601 7.14327 4.54009 6.35153C4.51373 6.15446 4.50016 5.95368 4.50016 5.75012C4.50016 5.2242 4.59068 4.71835 4.75718 4.24803C4.47455 4.01914 4.21083 3.76791 3.96868 3.49703C3.8266 3.33809 3.75887 3.12618 3.78244 2.9143C3.86433 2.17786 4.09864 1.48694 4.45287 0.87458C4.66028 0.516034 5.11907 0.393513 5.47762 0.60092Z" />
</svg>
