<svg width="109" height="139" viewBox="0 0 109 139" fill="none" xmlns="http://www.w3.org/2000/svg">
<path d="M99.4474 0.00333081C99.3004 -0.0114184 99.1431 0.0269089 98.9941 0.135168C98.6962 0.354046 98.4325 0.86129 98.1494 1.67211C97.8664 2.48296 97.5638 3.59721 97.393 4.68659C97.2222 5.77596 97.1832 6.84059 97.1247 7.91486C97.0663 8.98913 96.9878 10.0737 96.8073 10.8147C96.6267 11.5557 96.3439 11.9536 95.8559 12.7992C95.3679 13.6448 94.675 14.9381 94.3529 15.9927C94.0309 17.0473 94.0794 17.8632 94.172 18.5944C94.2649 19.3256 94.401 19.9716 94.2545 20.5136C94.1081 21.0556 93.679 21.4931 92.8299 22.7367C91.9807 23.9803 90.7121 26.0299 89.785 27.6913C88.8577 29.3527 88.2721 30.6261 87.7597 31.9293C87.2473 33.2325 86.8078 34.5655 86.2027 35.9481C85.5975 37.3307 84.8262 38.7632 84.2016 40.131C83.5769 41.4989 83.0991 42.8019 82.5378 43.9658C81.9766 45.1297 81.3323 46.1548 80.4051 47.5127C79.4779 48.8706 78.2675 50.5616 77.4817 51.8849C76.696 53.2081 76.3351 54.1631 76.1545 54.6405C75.974 55.1179 75.974 55.1176 75.7731 55.3883C75.5723 55.6591 75.1711 56.2002 74.8324 56.3022C74.4937 56.4039 74.2172 56.0668 73.8169 55.2367C73.4165 54.4067 72.8924 53.0843 71.2913 51.4382C69.6903 49.792 67.0124 47.8222 65.0661 46.4152C63.1198 45.0081 61.9057 44.1642 60.9394 43.3624C59.9731 42.5605 59.2553 41.8007 58.5099 40.8441C57.7645 39.8874 56.9912 38.7337 55.4592 37.6223C53.9271 36.5107 51.6361 35.4416 49.3173 34.7522C46.9984 34.0627 44.652 33.7533 42.6643 33.7251C40.6766 33.6956 39.0472 33.9499 37.7912 34.3018C36.5351 34.6535 35.6519 35.1041 34.4786 35.8075C33.3053 36.511 31.8422 37.4671 30.4479 38.9866C29.0538 40.506 27.7288 42.5883 26.8592 44.7972C25.9896 47.0061 25.5758 49.3417 25.3136 50.7063C25.0514 52.0709 24.9406 52.4648 24.5543 52.7038C24.168 52.9428 23.5054 53.0271 23.1325 53.2101C22.7596 53.393 22.6768 53.6746 22.47 53.8433C22.263 54.0121 21.9318 54.0684 21.1933 54.2654C21.0535 54.3029 20.8857 54.3525 20.7179 54.4032C20.6152 54.3489 20.5674 54.2973 20.4994 54.2675C20.4184 54.2321 20.3078 54.2283 20.192 54.2703C20.0762 54.3125 19.9555 54.4004 19.8262 54.511C19.6969 54.6219 19.5585 54.7553 19.3637 54.8925C19.2389 54.9801 19.0905 55.0695 18.9346 55.1565C18.9259 55.1595 18.9201 55.1654 18.9114 55.1683C18.8306 55.2129 18.749 55.2574 18.6666 55.3002C18.4165 55.4303 18.1681 55.5497 17.9713 55.7434C17.9424 55.7729 17.9152 55.8012 17.8888 55.8319C17.3738 56.2104 16.831 56.6815 16.3033 57.2484C16.097 57.305 15.8902 57.3567 15.749 57.4036C15.5696 57.4634 15.4966 57.5163 15.4743 57.5638C15.4512 57.6115 15.4801 57.6537 15.5539 57.6921C15.6283 57.7307 15.7493 57.7655 15.8202 57.792C15.8217 57.7926 15.823 57.793 15.8231 57.7935C15.7626 57.8675 15.705 57.9495 15.6451 58.0262C15.5403 58.0902 15.4014 58.1669 15.2267 58.249C14.923 58.3914 14.5155 58.5493 14.1877 58.6689C13.8599 58.7884 13.6115 58.8692 13.4647 58.9512C13.3179 59.0329 13.2731 59.1155 13.289 59.163C13.3035 59.2105 13.3802 59.2235 13.4563 59.2385C13.5324 59.2533 13.6085 59.2712 13.7587 59.2872C13.9089 59.3019 14.1329 59.3167 14.3003 59.3468C14.4675 59.3769 14.5778 59.4223 14.5984 59.4715C14.6187 59.5205 14.5504 59.5739 14.3244 59.6441C14.0983 59.7143 13.7152 59.8022 13.3943 59.9022C13.0733 60.0025 12.8144 60.1152 12.6314 60.2279C12.4485 60.3406 12.3414 60.4526 12.314 60.5354C12.2851 60.6183 12.3372 60.6712 12.4437 60.6847C12.5487 60.6995 12.7073 60.6729 12.9077 60.6641C13.1079 60.6552 13.3497 60.6626 13.5033 60.6759C13.657 60.6906 13.7221 60.7112 13.7013 60.7708C13.681 60.8304 13.5734 60.9292 13.4628 61.0522C13.3522 61.1752 13.2388 61.3231 13.1682 61.4497C13.0973 61.5766 13.0701 61.6819 13.1013 61.7326C13.1326 61.7834 13.2223 61.7795 13.3326 61.7354C13.4428 61.6915 13.5739 61.6074 13.6948 61.539C13.7399 61.5124 13.7819 61.4906 13.8221 61.4708C13.7258 61.7661 13.6392 62.0687 13.5611 62.3782C13.5211 62.4425 13.489 62.5065 13.4722 62.5646C13.452 62.6366 13.452 62.6992 13.4693 62.7431C13.0229 64.7114 12.9256 66.8753 13.1462 68.6481C13.4431 71.0328 14.3129 72.7074 15.0996 74.4941C15.8864 76.2808 16.5901 78.1796 17.0801 79.8398C17.5701 81.4999 17.8463 82.9209 17.791 84.4751C17.7357 86.0297 17.3491 87.7179 16.8246 89.5329C16.3001 91.3478 15.6373 93.2893 15.0783 95.5683C14.5193 97.8475 14.0639 100.464 14.0778 102.568C14.0864 103.951 14.3 105.106 14.5403 105.963C14.3724 106.058 14.3253 106.122 14.43 106.169C14.4697 106.187 14.5339 106.202 14.6129 106.212C14.7157 106.546 14.8199 106.831 14.9133 107.048C15.2515 107.836 15.4448 107.822 15.3758 107.526C15.3246 107.307 15.1284 106.93 14.9545 106.222C15.2304 106.207 15.6039 106.148 16.086 106C17.0314 105.712 18.3845 105.092 19.5231 104.255C20.6617 103.418 21.5862 102.363 22.166 101.765C22.7458 101.167 22.9807 101.027 23.1118 101.491C23.2429 101.956 23.2701 103.025 23.0284 104.136C22.7868 105.248 22.2766 106.402 21.7383 107.33C21.1999 108.258 20.6342 108.962 19.9856 109.468C19.3369 109.975 18.6055 110.284 18.1154 110.572C17.6253 110.861 17.3762 111.128 17.7283 111.142C18.0804 111.157 19.0332 110.917 19.8681 110.452C20.7031 109.988 21.4207 109.299 21.8486 108.757C22.2764 108.216 22.4143 107.822 22.5687 107.81C22.7233 107.798 22.8942 108.167 22.7062 109.113C22.5181 110.058 21.9713 111.58 21.6395 112.545C21.3076 113.51 21.1901 113.918 21.2097 114.938C21.2299 115.957 21.3856 117.589 21.3955 118.793C21.4041 119.997 21.2684 120.772 20.9365 121.458C20.6046 122.145 20.0776 122.742 19.531 123.726C18.9844 124.711 18.4183 126.084 18.1256 127.338C17.8328 128.592 17.8131 129.726 17.5691 130.81C17.3251 131.894 16.8568 132.929 16.4468 134.292C16.0369 135.655 15.6857 137.346 15.2172 139.027C14.7487 140.709 14.1629 142.38 13.6751 143.255C13.1872 144.131 12.7971 144.21 12.2504 144.617C11.7037 145.025 11.0005 145.762 10.6784 146.688C10.3564 147.613 10.4154 148.727 10.4643 149.642C10.5132 150.557 10.5523 151.273 9.92771 151.83C9.30319 152.387 8.01448 152.785 6.41368 153.442C4.81298 154.098 2.90022 155.013 1.6899 156.088C0.479491 157.162 -0.028307 158.396 0.00121296 159.222C0.030733 160.048 0.596609 160.466 1.12343 160.386C1.65027 160.306 2.13847 159.729 2.67548 159.44C3.21248 159.152 3.798 159.152 3.97347 159.371C4.14885 159.589 3.91472 160.028 3.97347 160.485C4.03222 160.943 4.38351 161.42 4.90071 161.48C5.41792 161.539 6.10144 161.181 6.65772 160.813C7.21399 160.445 7.64318 160.068 8.09234 159.889C8.54148 159.709 9.01026 159.729 9.55687 159.828C10.1035 159.928 10.728 160.107 11.089 160.535C11.4499 160.963 11.5472 161.64 11.928 161.948C12.3088 162.256 12.9729 162.196 13.3534 161.908C13.7338 161.62 13.8308 161.103 13.9675 160.734C14.1041 160.366 14.28 160.147 14.8072 159.948C15.3344 159.749 16.2128 159.57 17.1107 159.212C18.0086 158.854 18.9262 158.316 20.039 158.048C21.1518 157.779 22.4596 157.78 23.4647 157.471C24.4699 157.163 25.1722 156.546 25.3968 155.899C25.6214 155.253 25.3679 154.576 25.3192 153.91C25.2703 153.243 25.426 152.586 25.7675 151.93C26.1092 151.273 26.6363 150.617 27.2513 150.039C27.8662 149.462 28.5695 148.965 29.4381 148.309C30.3067 147.652 31.3409 146.836 32.1608 145.742C32.9805 144.648 33.5857 143.276 34.0152 142.519C34.4448 141.763 34.6982 141.623 35.1083 141.843C35.5183 142.062 36.0851 142.639 36.7585 143.355C37.432 144.071 38.2127 144.927 40.1843 145.951C42.1559 146.976 45.3179 148.169 47.9921 148.965C50.6664 149.761 52.8521 150.159 55.0387 150.378C57.2249 150.597 59.4111 150.636 61.5195 150.636C63.6277 150.636 65.6581 150.596 67.7369 150.706C69.8159 150.815 71.9438 151.074 74.6475 151.184C77.351 151.293 80.6299 151.253 83.4994 150.875C86.3688 150.497 88.8283 149.781 90.6632 148.935C92.4981 148.09 93.7084 147.114 94.7037 145.851C95.699 144.588 96.48 143.036 97.1047 141.425C97.7294 139.813 98.1977 138.142 98.471 136.958C98.7443 135.774 98.8226 135.078 99.2716 134.302C99.7206 133.526 100.541 132.67 101.107 131.785C101.673 130.9 101.985 129.984 101.917 128.94C101.848 127.895 101.399 126.722 100.687 125.12C99.9745 123.519 98.9987 121.489 98.2276 119.619C97.4566 117.748 96.8906 116.037 96.1099 114.416C95.3291 112.794 94.3335 111.263 93.6014 109.472C92.8693 107.681 92.4007 105.632 91.7761 103.543C91.1515 101.453 90.3706 99.3252 89.7166 97.7633C89.0628 96.2014 88.5359 95.206 88.2187 94.5544C87.9014 93.9028 87.7937 93.5949 87.4473 92.8289C87.1008 92.0629 86.5154 90.8392 86.081 89.6106C85.6466 88.382 85.3635 87.1481 85.1488 86.1681C84.934 85.1882 84.7877 84.4624 84.773 83.771C84.7585 83.0795 84.8752 82.4229 85.168 81.801C85.4608 81.1791 85.9294 80.592 86.4809 79.9703C87.0324 79.3484 87.6669 78.6919 88.1305 78.1149C88.594 77.538 88.8871 77.0409 89.1701 76.2849C89.4532 75.5289 89.7262 74.5139 90.0483 73.7528C90.3704 72.9917 90.741 72.4844 91.063 71.7981C91.3851 71.1117 91.6585 70.2463 91.8928 69.3907C92.1269 68.5352 92.3227 67.69 92.5325 66.5758C92.7424 65.4616 92.9666 64.0785 93.3082 62.9194C93.6498 61.7604 94.1086 60.8252 94.4795 59.6315C94.8504 58.4378 95.1334 56.9856 95.5726 55.5531C96.0118 54.1205 96.6069 52.7081 96.968 51.5443C97.3292 50.3804 97.4563 49.465 97.6954 48.5646C97.9344 47.6643 98.2858 46.7788 98.5884 45.8338C98.891 44.8888 99.1448 43.8839 99.5157 42.7547C99.8865 41.6256 100.374 40.372 100.633 39.4619C100.892 38.5517 100.921 37.9847 101.068 37.2286C101.214 36.4725 101.477 35.5273 101.712 34.7016C101.946 33.8759 102.151 33.1696 102.263 32.4683C102.376 31.767 102.395 31.0712 102.516 30.2256C102.639 29.3799 102.863 28.3847 102.941 27.6536C103.019 26.9225 102.95 26.4552 102.859 26.0275C102.766 25.5997 102.649 25.2113 102.736 24.6043C102.824 23.9974 103.117 23.172 103.566 22.4407C104.015 21.7094 104.62 21.0728 105.318 20.2372C106.016 19.4016 106.807 18.367 107.348 17.6159C107.89 16.8648 108.182 16.3975 108.222 16.0644C108.261 15.7313 108.047 15.5322 107.876 15.2637C107.705 14.9952 107.578 14.6568 107.29 14.3483C107.002 14.0398 106.553 13.7615 106.29 13.483C106.026 13.2046 105.948 12.9259 105.65 12.6721C105.353 12.4184 104.836 12.1889 104.421 11.8409C104.006 11.4928 103.693 11.0254 103.298 10.6274C102.903 10.2294 102.425 9.90109 101.873 9.67218C101.322 9.44327 100.697 9.3139 100.36 9.01065C100.023 8.70738 99.9747 8.22993 99.9746 7.30474C99.9746 6.37955 100.023 5.00693 100.077 3.88764C100.131 2.7685 100.189 1.90306 100.17 1.30622C100.149 0.709377 100.052 0.381093 99.838 0.181979C99.7307 0.0825698 99.5943 0.0147492 99.4473 0L99.4474 0.00333081ZM24.102 57.5635C24.1222 57.5641 24.1451 57.5649 24.1668 57.5664C24.2099 57.5694 24.2536 57.5782 24.2976 57.5841C24.3859 57.6018 24.4762 57.6231 24.5688 57.6428C24.6614 57.6635 24.7572 57.6803 24.8533 57.7016C24.9013 57.7134 24.9497 57.7252 24.9986 57.7369C25.0472 57.7517 25.0955 57.7665 25.1444 57.7833C25.1933 57.801 25.2423 57.8213 25.2912 57.8449C25.3143 57.8567 25.3395 57.8685 25.3638 57.8827C25.387 57.8974 25.4124 57.9092 25.4364 57.9263C25.4596 57.9411 25.4845 57.9585 25.5082 57.9765C25.5314 57.9942 25.5563 58.0136 25.58 58.0337C25.6031 58.0544 25.6269 58.0747 25.6503 58.0974C25.6735 58.121 25.6969 58.1443 25.7201 58.17C25.7432 58.1966 25.7664 58.2222 25.789 58.2505C25.8121 58.28 25.835 58.3083 25.8573 58.339C25.9021 58.4001 25.9461 58.4653 25.9889 58.5334C26.0318 58.6016 26.0737 58.6723 26.1143 58.7446C26.1548 58.8169 26.1941 58.8904 26.2318 58.9638C26.2694 59.0373 26.3053 59.1104 26.3391 59.1821C26.3733 59.2538 26.4051 59.3234 26.4352 59.3903C26.4954 59.524 26.5475 59.6452 26.5889 59.7421C26.6303 59.8392 26.6609 59.9115 26.687 59.9749C26.713 60.0383 26.7347 60.0929 26.7567 60.1525C26.7799 60.2121 26.8013 60.277 26.83 60.3628C26.8589 60.4486 26.8931 60.5554 26.9397 60.6971C26.986 60.839 27.0444 61.0158 27.1148 61.2274C27.1848 61.4389 27.2673 61.6851 27.3625 61.9643C27.4577 62.2433 27.5656 62.5561 27.687 62.9007C27.8082 63.2453 27.9431 63.6221 28.0919 64.03C28.1663 64.2338 28.2441 64.4452 28.326 64.6632C28.4079 64.8812 28.4945 65.1056 28.585 65.3348C28.6305 65.4496 28.6768 65.5655 28.7245 65.6823C28.7723 65.7991 28.8209 65.9168 28.8713 66.0355C28.9213 66.1541 28.9734 66.2742 29.0264 66.3945C29.0794 66.5149 29.1329 66.635 29.1888 66.7565C29.2443 66.878 29.3016 66.9998 29.3604 67.1221C29.4191 67.2442 29.4788 67.3672 29.5404 67.4898C29.602 67.6125 29.6654 67.7349 29.7306 67.8575C29.7954 67.9802 29.8622 68.103 29.9305 68.2253C29.9988 68.3477 30.068 68.4698 30.1398 68.5915C30.2115 68.7134 30.2851 68.8343 30.3603 68.9549C30.4356 69.0756 30.5131 69.1953 30.5924 69.3147C30.6714 69.4338 30.7522 69.5524 30.8349 69.6701C30.918 69.7875 31.0028 69.9043 31.0896 70.0197C31.1764 70.1353 31.2647 70.2495 31.355 70.3627C31.4453 70.476 31.5376 70.5884 31.6311 70.6993C31.7246 70.8103 31.8195 70.92 31.9156 71.0286C32.012 71.1372 32.1092 71.2448 32.2081 71.3507C32.3071 71.4566 32.4072 71.561 32.5084 71.664C32.6094 71.7673 32.7112 71.8693 32.8144 71.9694C32.9174 72.0697 33.0213 72.1682 33.1261 72.2653C33.2308 72.3623 33.3362 72.4579 33.442 72.5517C33.5479 72.6455 33.6539 72.7382 33.7608 72.8287C33.8676 72.9193 33.9756 73.0078 34.0832 73.0948C34.1908 73.1818 34.2985 73.2674 34.4063 73.3508C34.5142 73.4343 34.6222 73.5157 34.73 73.5954C34.838 73.675 34.9454 73.752 35.0531 73.8275C35.1608 73.903 35.2685 73.9765 35.3755 74.0479C35.4826 74.1193 35.5896 74.1889 35.6957 74.2562C35.8019 74.3231 35.9076 74.3883 36.0124 74.4511C36.1172 74.514 36.2208 74.575 36.3241 74.634C36.4274 74.693 36.5296 74.7505 36.6308 74.806C36.7318 74.8615 36.8316 74.9148 36.9304 74.9671C37.1275 75.0715 37.3192 75.17 37.5039 75.263C37.6886 75.3562 37.8666 75.4441 38.0355 75.5285C38.2045 75.6125 38.3645 75.6928 38.5145 75.7706C38.5894 75.8096 38.662 75.8482 38.7315 75.886C38.8013 75.9238 38.8675 75.9606 38.9315 75.9978C38.9952 76.0346 39.0568 76.0724 39.1144 76.1087C39.172 76.1453 39.2264 76.1807 39.2773 76.2167C39.3283 76.2529 39.3757 76.2892 39.4197 76.3255C39.4637 76.3618 39.5042 76.3978 39.5407 76.4344C39.5581 76.4521 39.5763 76.4718 39.5928 76.4901C39.6102 76.5078 39.6246 76.5267 39.6391 76.5453C39.6536 76.563 39.668 76.583 39.6805 76.6019C39.6921 76.6196 39.7036 76.6388 39.7155 76.6577C39.7271 76.6754 39.7358 76.696 39.7447 76.7149C39.7534 76.7326 39.7621 76.7533 39.7679 76.7721C39.7737 76.7928 39.7824 76.8108 39.7853 76.8299C39.7911 76.8506 39.7939 76.8686 39.7968 76.888C39.7997 76.9087 39.8026 76.9273 39.8055 76.9467C39.8072 76.9674 39.8078 76.9857 39.8076 77.0055C39.8074 77.0261 39.8067 77.0458 39.8047 77.0656C39.8028 77.0863 39.7989 77.1048 39.796 77.1252C39.7931 77.1458 39.7873 77.1659 39.7816 77.186C39.7758 77.2066 39.77 77.2267 39.7642 77.247C39.7555 77.2677 39.7497 77.2881 39.741 77.3087C39.7324 77.3294 39.7237 77.3494 39.7118 77.3703C39.6915 77.4119 39.6658 77.4538 39.6377 77.4957C39.6088 77.5379 39.5784 77.5804 39.5437 77.6234C39.5089 77.6662 39.471 77.7099 39.4299 77.7532C39.3888 77.7966 39.3445 77.8402 39.2968 77.8845C39.249 77.9287 39.1978 77.9739 39.1437 78.0187C39.0896 78.0635 39.0326 78.1096 38.9721 78.155C38.9116 78.2007 38.8479 78.2464 38.7813 78.2927C38.7148 78.3391 38.6453 78.3862 38.573 78.4334C38.5003 78.4806 38.4251 78.5281 38.3466 78.5762C38.2682 78.6243 38.1869 78.673 38.1032 78.722C37.9363 78.8202 37.7598 78.9205 37.5752 79.023C37.206 79.228 36.8062 79.4433 36.3932 79.6721C36.1869 79.7866 35.9764 79.9037 35.7656 80.0253C35.6602 80.0861 35.5546 80.1481 35.4489 80.2112C35.3432 80.274 35.2376 80.3386 35.1322 80.4035C35.0269 80.4684 34.9216 80.5345 34.817 80.6014C34.7125 80.6687 34.6086 80.7371 34.5053 80.8067C34.402 80.8764 34.2998 80.9472 34.1986 81.0191C34.0973 81.0911 33.9971 81.1643 33.8983 81.2389C33.7996 81.3136 33.702 81.3891 33.6058 81.4661C33.5097 81.543 33.4145 81.6215 33.3213 81.7002C33.2278 81.779 33.1358 81.8592 33.0452 81.9395C32.9543 82.0197 32.8649 82.1006 32.7769 82.1817C32.6889 82.2628 32.6027 82.3445 32.517 82.4262C32.4317 82.5079 32.3471 82.5896 32.2644 82.6714C32.0985 82.8345 31.9381 82.9972 31.7826 83.1573C31.6272 83.3175 31.4763 83.475 31.3307 83.628C31.1852 83.7811 31.0445 83.9292 30.9087 84.0712C30.773 84.2131 30.6416 84.3488 30.5152 84.4759C30.4521 84.5394 30.3905 84.601 30.3294 84.66C30.2686 84.719 30.2087 84.7757 30.15 84.8296C30.0915 84.8836 30.0339 84.9352 29.9778 84.9842C29.9216 85.0332 29.8664 85.0792 29.8125 85.1228C29.7587 85.1665 29.7063 85.2078 29.6554 85.2462C29.6042 85.2845 29.555 85.3196 29.5066 85.3529C29.4583 85.386 29.4111 85.4167 29.3657 85.4444C29.3202 85.4709 29.2766 85.4966 29.234 85.519C29.1915 85.5426 29.1501 85.5615 29.111 85.5786C29.0716 85.5963 29.0346 85.6093 28.9987 85.6208C28.9628 85.6326 28.9281 85.6414 28.8954 85.6473C28.8627 85.6532 28.832 85.6562 28.8028 85.6562C28.7738 85.6567 28.7469 85.6548 28.7217 85.6503C28.7102 85.6475 28.6957 85.6444 28.6847 85.6414C28.6731 85.6385 28.6615 85.6326 28.6511 85.6267C28.6396 85.6208 28.6309 85.6149 28.6199 85.609C28.6112 85.6031 28.5996 85.5942 28.5909 85.5883C28.5822 85.5795 28.5736 85.5706 28.5678 85.5618C28.5591 85.5529 28.5533 85.5441 28.5446 85.532C28.5388 85.5202 28.533 85.5084 28.5273 85.4972C28.5215 85.4854 28.5157 85.4706 28.5128 85.4579C28.5041 85.4314 28.4954 85.401 28.4925 85.368C28.4867 85.3349 28.4838 85.299 28.4838 85.2606C28.4832 85.2223 28.4842 85.1809 28.4867 85.1373C28.4896 85.0933 28.4954 85.0473 28.5012 84.9986C28.507 84.95 28.5157 84.8993 28.5273 84.8456C28.5359 84.7922 28.5475 84.7361 28.5608 84.678C28.5724 84.6199 28.5869 84.5597 28.6022 84.4975C28.632 84.373 28.6665 84.24 28.7032 84.1C28.777 83.8204 28.8615 83.5118 28.9457 83.1832C28.988 83.0189 29.03 82.8495 29.0702 82.6762C29.0905 82.5894 29.1101 82.5022 29.1292 82.4137C29.1495 82.3252 29.1671 82.2355 29.1848 82.1452C29.2022 82.0553 29.2192 81.9641 29.2354 81.8726C29.2499 81.7809 29.2661 81.6889 29.2803 81.5956C29.2948 81.5024 29.3063 81.4084 29.3194 81.3134C29.3309 81.2184 29.3425 81.1228 29.3521 81.026C29.3608 80.9293 29.3694 80.8317 29.3781 80.7331C29.3839 80.6346 29.3926 80.5355 29.3955 80.435C29.3984 80.3347 29.4013 80.2327 29.4042 80.1304C29.4057 80.028 29.4058 79.9245 29.4042 79.82C29.4025 79.7155 29.3984 79.6102 29.3955 79.5037C29.3897 79.3972 29.3839 79.2898 29.3752 79.1809C29.3666 79.0721 29.355 78.9621 29.344 78.8509C29.3324 78.7397 29.3179 78.627 29.3011 78.5136C29.2838 78.4004 29.2667 78.2856 29.2464 78.1699C29.2262 78.0539 29.203 77.9365 29.1781 77.8181C29.1521 77.6995 29.1263 77.58 29.0971 77.459C29.0679 77.3381 29.036 77.2157 29.0019 77.092C28.9677 76.9681 28.931 76.8433 28.8922 76.717C28.8534 76.5908 28.8123 76.4634 28.7692 76.3348C28.7261 76.2062 28.6809 76.0764 28.634 75.946C28.5869 75.8153 28.538 75.6844 28.4873 75.5522C28.4367 75.42 28.3846 75.2867 28.3307 75.1532C28.2769 75.0196 28.2222 74.886 28.1655 74.7514C28.1091 74.6169 28.0506 74.4827 27.9918 74.3474C27.9331 74.2123 27.8735 74.0769 27.8124 73.9413C27.6909 73.6702 27.5655 73.3982 27.4381 73.1274C27.3107 72.8566 27.1817 72.5867 27.0517 72.3187C26.9217 72.0509 26.7918 71.785 26.6624 71.5223C26.5331 71.2594 26.4046 71.0004 26.2788 70.7455C26.1532 70.4906 26.0299 70.2398 25.9095 69.9933C25.7891 69.747 25.6719 69.5048 25.5573 69.2658C25.4427 69.0268 25.3312 68.7906 25.2228 68.5579C25.1143 68.3252 25.0083 68.0949 24.9061 67.8674C24.804 67.6397 24.7056 67.4149 24.6101 67.1914C24.5146 66.9681 24.4223 66.7467 24.334 66.5262C24.2897 66.4162 24.246 66.3059 24.2038 66.1962C24.1615 66.0865 24.1204 65.9768 24.0799 65.8677C24.0394 65.7585 23.9997 65.6494 23.961 65.5406C23.9225 65.4317 23.8851 65.3229 23.8484 65.2142C23.8119 65.1053 23.7763 64.9965 23.7416 64.8878C23.7068 64.7792 23.673 64.671 23.6406 64.5628C23.6079 64.4546 23.5763 64.3463 23.5459 64.2386C23.5155 64.1309 23.486 64.0235 23.4577 63.9165C23.4287 63.8095 23.4021 63.7033 23.3758 63.5974C23.3497 63.4915 23.3237 63.3859 23.2996 63.2812C23.2765 63.1765 23.2525 63.0726 23.2308 62.9693C23.2076 62.8658 23.1885 62.7628 23.1688 62.661C23.1486 62.5592 23.1306 62.4587 23.1133 62.3586C23.0959 62.2586 23.0794 62.1592 23.064 62.0612C23.0496 61.963 23.0348 61.8662 23.0221 61.7703C23.0105 61.6745 22.9989 61.5795 22.9871 61.486C22.9755 61.3924 22.9668 61.2998 22.9581 61.209C22.9494 61.1181 22.9437 61.0287 22.9379 60.9405C22.9321 60.8523 22.9263 60.7653 22.9234 60.6801C22.9205 60.5948 22.9176 60.5111 22.9176 60.4291C22.917 60.347 22.9173 60.2662 22.919 60.1874C22.9208 60.1087 22.9248 60.0314 22.9277 59.9562C22.9306 59.8807 22.9364 59.8069 22.9422 59.7349C22.948 59.663 22.9537 59.5925 22.9624 59.5238C22.9711 59.455 22.9798 59.3881 22.9914 59.3229C23.0029 59.2577 23.0116 59.1939 23.0241 59.132C23.0356 59.0703 23.0472 59.0102 23.0617 58.9521C23.0762 58.894 23.0877 58.8376 23.1037 58.783C23.1181 58.7284 23.1332 58.676 23.1491 58.6249C23.1635 58.5739 23.1812 58.5249 23.1983 58.4777C23.2157 58.4305 23.2324 58.3848 23.2501 58.3414C23.2675 58.2981 23.2863 58.2565 23.3048 58.2167C23.3222 58.1769 23.3424 58.1394 23.3618 58.1034C23.3821 58.0674 23.4006 58.0332 23.4203 58.001C23.4405 57.9689 23.4602 57.9385 23.4802 57.9105C23.5004 57.881 23.5204 57.8565 23.5407 57.832C23.5609 57.8084 23.5809 57.7842 23.6012 57.7639C23.6214 57.7432 23.6414 57.7249 23.6616 57.7081C23.6819 57.6904 23.7024 57.6774 23.7227 57.6639C23.743 57.6491 23.7632 57.6373 23.7838 57.6276C23.804 57.6158 23.8249 57.6069 23.8457 57.601C23.8659 57.5922 23.8874 57.5863 23.9082 57.5804C23.9285 57.5745 23.9499 57.5715 23.9707 57.5686C23.991 57.5657 24.013 57.5656 24.0341 57.5627C24.0544 57.5616 24.0767 57.5614 24.0981 57.562L24.102 57.5635ZM19.9547 87.1415C20.001 87.1504 20.0459 87.171 20.0899 87.1996C20.4419 87.4389 20.7317 88.3399 21.1181 89.578C21.5046 90.816 21.9879 92.3917 22.3123 93.6579C22.6366 94.9241 22.8025 95.8804 22.318 97.0198C21.8349 98.1592 20.7031 99.4819 19.7092 100.657C18.7154 101.831 17.8591 102.858 17.3139 103.512C16.7687 104.167 16.5342 104.448 16.6172 104.589C16.7003 104.729 17.1005 104.729 16.8244 104.919C16.5483 105.109 15.5962 105.489 15.0233 105.735C14.9632 105.762 14.9244 105.78 14.8726 105.803C14.8436 105.658 14.8129 105.532 14.7886 105.363C14.6023 104.069 14.5603 102.057 14.7944 99.975C15.0292 97.8927 15.5402 95.7402 16.2718 93.7001C17.0033 91.6601 17.9553 89.7325 18.6386 88.5576C19.2365 87.5296 19.6285 87.0782 19.953 87.1418L19.9547 87.1415Z" fill="#25334F"/>
</svg>
